<svg width="270" height="91" viewBox="0 0 270 91" fill="none" xmlns="http://www.w3.org/2000/svg">
<path d="M13.3186 36.0585L54.0469 17.9253" stroke="#82C2EB" stroke-width="1.4673" stroke-miterlimit="10"/>
<path d="M93.5217 39.9147H89.2725V33.9765H84.8535V39.9147H80.6043V24.9045H84.8535V30.4922H89.2725V24.9045H93.5217V39.9147Z" fill="white"/>
<path d="M94.8602 32.5212C94.8602 31.1933 95.0621 30.0248 95.4764 29.0262C95.8907 28.0277 96.4219 27.1991 97.0911 26.5299C97.7604 25.8606 98.5251 25.3613 99.3856 25.0214C100.257 24.6814 101.138 24.5115 102.052 24.5115C104.187 24.5115 105.866 25.1596 107.108 26.4662C108.341 27.7728 108.967 29.6848 108.967 32.2131C108.967 32.4574 108.957 32.7336 108.936 33.0311C108.914 33.3285 108.893 33.5835 108.883 33.8172H99.2368C99.3324 34.6882 99.7361 35.3894 100.469 35.8993C101.191 36.4092 102.158 36.6748 103.38 36.6748C104.155 36.6748 104.931 36.6004 105.674 36.4623C106.429 36.3242 107.034 36.1436 107.512 35.9311L108.086 39.3836C107.863 39.5004 107.555 39.6067 107.172 39.7236C106.79 39.8404 106.365 39.9361 105.897 40.021C105.43 40.106 104.931 40.1803 104.4 40.2334C103.869 40.2866 103.337 40.3184 102.806 40.3184C101.457 40.3184 100.278 40.1166 99.2794 39.7236C98.2808 39.3199 97.4523 38.7781 96.7936 38.0876C96.135 37.3971 95.657 36.5686 95.3383 35.6231C95.0196 34.6458 94.8602 33.626 94.8602 32.5212ZM104.856 30.8959C104.835 30.5347 104.771 30.1841 104.676 29.8442C104.57 29.5043 104.41 29.1962 104.187 28.9307C103.964 28.6651 103.688 28.442 103.359 28.272C103.029 28.1021 102.615 28.0171 102.116 28.0171C101.638 28.0171 101.234 28.1021 100.883 28.2614C100.544 28.4208 100.257 28.6332 100.023 28.8988C99.7998 29.1643 99.6192 29.4724 99.4918 29.8229C99.3643 30.1735 99.2794 30.5347 99.2157 30.8959H104.856Z" fill="white"/>
<path d="M123.967 24.9045V39.9147H119.686C119.686 38.9586 119.697 38.0133 119.718 37.0785C119.739 36.133 119.76 35.2619 119.771 34.4652C119.792 33.6684 119.813 32.9674 119.845 32.3725C119.877 31.7776 119.888 31.3314 119.888 31.0446C119.335 31.8201 118.783 32.6168 118.231 33.4135C117.678 34.2102 117.147 34.9964 116.648 35.7719C116.149 36.5474 115.671 37.2803 115.224 37.9814C114.778 38.6825 114.385 39.3305 114.035 39.9253H110.295V24.9152H114.544C114.544 25.8712 114.544 26.7743 114.534 27.6453C114.523 28.5058 114.513 29.2918 114.491 30.0036C114.47 30.7153 114.449 31.3208 114.438 31.8413C114.417 32.3618 114.406 32.7655 114.406 33.0524C115.543 31.3739 116.595 29.8761 117.561 28.5483C118.517 27.2204 119.463 26.0093 120.376 24.9258H123.967V24.9045ZM117.179 22.8438C116.573 22.8438 115.989 22.7481 115.426 22.5675C114.863 22.387 114.353 22.1214 113.896 21.7708C113.44 21.4203 113.068 20.9954 112.77 20.4855C112.473 19.9862 112.303 19.402 112.239 18.7646L115.182 17.989C115.331 18.7114 115.586 19.2213 115.936 19.5294C116.287 19.8375 116.701 19.9861 117.179 19.9861C117.678 19.9861 118.093 19.8481 118.454 19.5719C118.804 19.2958 119.059 18.7751 119.208 18.0209L122.119 18.7857C122.065 19.4337 121.885 20.0074 121.587 20.5173C121.29 21.0165 120.918 21.4415 120.472 21.7921C120.026 22.132 119.516 22.3976 118.942 22.5782C118.379 22.7588 117.784 22.8438 117.179 22.8438Z" fill="white"/>
<path d="M139.976 32.4044C139.976 33.5623 139.838 34.6245 139.551 35.57C139.264 36.526 138.85 37.3441 138.297 38.0239C137.745 38.7038 137.065 39.2456 136.247 39.6174C135.429 39.9998 134.484 40.1909 133.421 40.1909C132.827 40.1909 132.274 40.1379 131.764 40.021C131.254 39.9042 130.755 39.7448 130.277 39.5323V45.1838H126.028V25.4039C126.41 25.2871 126.846 25.1808 127.345 25.0745C127.844 24.9683 128.354 24.8833 128.896 24.809C129.438 24.7346 129.99 24.6708 130.553 24.6283C131.116 24.5858 131.647 24.554 132.168 24.554C133.4 24.554 134.505 24.7346 135.482 25.1064C136.449 25.4782 137.267 25.9987 137.936 26.6786C138.605 27.3585 139.115 28.1764 139.466 29.1431C139.806 30.1204 139.976 31.204 139.976 32.4044ZM135.642 32.5212C135.642 31.204 135.344 30.163 134.76 29.3662C134.165 28.5801 133.294 28.1765 132.136 28.1765C131.754 28.1765 131.403 28.187 131.084 28.2189C130.766 28.2507 130.5 28.2827 130.288 28.3146V35.9949C130.553 36.1649 130.904 36.3136 131.329 36.4199C131.754 36.5367 132.189 36.5897 132.625 36.5897C134.632 36.6004 135.642 35.2407 135.642 32.5212Z" fill="white"/>
<path d="M155.358 32.3725C155.358 33.5516 155.188 34.6352 154.848 35.6125C154.508 36.5898 154.009 37.429 153.361 38.1195C152.713 38.81 151.937 39.3518 151.034 39.7342C150.131 40.1166 149.122 40.3078 147.996 40.3078C146.891 40.3078 145.893 40.1166 144.99 39.7342C144.087 39.3518 143.311 38.8206 142.663 38.1195C142.015 37.429 141.516 36.5898 141.155 35.6125C140.794 34.6352 140.613 33.5516 140.613 32.3725C140.613 31.1933 140.794 30.1204 141.166 29.1431C141.537 28.1764 142.047 27.3478 142.706 26.6573C143.364 25.9775 144.14 25.4357 145.043 25.0639C145.946 24.6815 146.934 24.4902 147.996 24.4902C149.08 24.4902 150.078 24.6815 150.981 25.0639C151.884 25.4463 152.659 25.9775 153.307 26.6573C153.955 27.3372 154.455 28.1658 154.816 29.1431C155.177 30.1204 155.358 31.1933 155.358 32.3725ZM151.024 32.3725C151.024 31.0552 150.758 30.0248 150.237 29.2812C149.717 28.5269 148.963 28.1552 147.996 28.1552C147.029 28.1552 146.275 28.5269 145.744 29.2812C145.213 30.0354 144.947 31.0659 144.947 32.3725C144.947 33.6791 145.213 34.7308 145.744 35.4957C146.275 36.2605 147.029 36.6535 147.996 36.6535C148.963 36.6535 149.717 36.2711 150.237 35.4957C150.758 34.7308 151.024 33.6897 151.024 32.3725Z" fill="white"/>
<path d="M89.4638 50.4527V61.9785H85.2146V50.4527H80.4237V46.9683H94.2654V50.4527H89.4638Z" fill="white"/>
<path d="M108.829 54.4682C108.829 55.6261 108.691 56.6883 108.404 57.6338C108.118 58.5898 107.703 59.4077 107.151 60.0876C106.599 60.7675 105.919 61.3092 105.101 61.681C104.283 62.0635 103.337 62.2547 102.275 62.2547C101.68 62.2547 101.128 62.2016 100.618 62.0847C100.108 61.9679 99.6087 61.8086 99.1306 61.5961V67.2474H94.8815V47.4676C95.2639 47.3507 95.6994 47.2446 96.1987 47.1383C96.698 47.0321 97.208 46.9471 97.7497 46.8621C98.2915 46.7878 98.8438 46.724 99.4068 46.6815C99.9698 46.639 100.501 46.6072 101.022 46.6072C102.254 46.6072 103.359 46.7878 104.336 47.1596C105.303 47.5314 106.121 48.0519 106.79 48.7318C107.459 49.4116 107.969 50.2295 108.319 51.1962C108.659 52.1842 108.829 53.2784 108.829 54.4682ZM104.495 54.585C104.495 53.2678 104.198 52.2267 103.613 51.43C103.029 50.6439 102.148 50.2508 100.99 50.2508C100.607 50.2508 100.257 50.2614 99.938 50.2933C99.6193 50.3252 99.3431 50.357 99.1413 50.3889V58.0694C99.4068 58.2393 99.7574 58.3879 100.182 58.4942C100.607 58.611 101.043 58.6642 101.478 58.6642C103.486 58.6642 104.495 57.3045 104.495 54.585Z" fill="white"/>
<path d="M109.456 54.585C109.456 53.2571 109.658 52.0886 110.072 51.09C110.487 50.0915 111.018 49.2629 111.687 48.5937C112.356 47.9244 113.121 47.4251 113.981 47.0852C114.853 46.7452 115.734 46.5753 116.648 46.5753C118.783 46.5753 120.461 47.2233 121.704 48.5299C122.937 49.8365 123.563 51.7486 123.563 54.2769C123.563 54.5212 123.553 54.7974 123.531 55.0949C123.51 55.3923 123.489 55.6473 123.478 55.881H113.833C113.928 56.752 114.332 57.4531 115.065 57.963C115.787 58.4729 116.754 58.7386 117.976 58.7386C118.751 58.7386 119.527 58.6642 120.27 58.5261C121.024 58.388 121.63 58.2074 122.108 57.9949L122.682 61.4474C122.459 61.5642 122.151 61.6705 121.768 61.7874C121.386 61.9042 120.961 61.9997 120.493 62.0847C120.026 62.1697 119.527 62.2441 118.996 62.2972C118.464 62.3504 117.933 62.3822 117.402 62.3822C116.053 62.3822 114.874 62.1804 113.875 61.7874C112.877 61.3837 112.048 60.8419 111.39 60.1514C110.731 59.4609 110.253 58.6322 109.934 57.6868C109.615 56.7201 109.456 55.6898 109.456 54.585ZM119.442 52.9597C119.42 52.5985 119.357 52.2479 119.261 51.908C119.155 51.5681 118.995 51.26 118.772 50.9945C118.549 50.7289 118.273 50.5058 117.944 50.3358C117.615 50.1659 117.2 50.0809 116.701 50.0809C116.223 50.0809 115.819 50.1659 115.469 50.3252C115.129 50.4846 114.842 50.697 114.608 50.9626C114.385 51.2281 114.205 51.5362 114.077 51.8867C113.95 52.2373 113.865 52.5985 113.801 52.9597H119.442Z" fill="white"/>
<path d="M137.819 61.9785H133.57V56.0403H129.151V61.9785H124.902V46.9683H129.151V52.5666H133.57V46.9683H137.819V61.9785Z" fill="white"/>
<path d="M145.266 46.5647C146.519 46.5647 147.571 46.7028 148.4 46.9896C149.239 47.2764 149.908 47.6801 150.407 48.2219C150.907 48.753 151.268 49.401 151.48 50.1658C151.693 50.9307 151.799 51.7699 151.799 52.7047V61.5536C151.194 61.6917 150.344 61.8405 149.26 62.021C148.177 62.2016 146.859 62.2972 145.319 62.2972C144.352 62.2972 143.471 62.2123 142.685 62.0423C141.898 61.8723 141.219 61.5855 140.645 61.2031C140.071 60.81 139.636 60.3002 139.328 59.6734C139.02 59.0467 138.871 58.2711 138.871 57.3576C138.871 56.4865 139.052 55.7429 139.402 55.1268C139.753 54.5213 140.22 54.0326 140.815 53.6715C141.41 53.3103 142.079 53.0447 142.844 52.8854C143.609 52.726 144.395 52.6409 145.213 52.6409C145.765 52.6409 146.254 52.6622 146.679 52.7154C147.104 52.7579 147.454 52.8216 147.72 52.896V52.4923C147.72 51.77 147.497 51.1857 147.061 50.7502C146.626 50.3146 145.861 50.0915 144.777 50.0915C144.055 50.0915 143.343 50.1445 142.642 50.2508C141.941 50.357 141.325 50.5058 140.815 50.697L140.273 47.2764C140.517 47.2021 140.826 47.1171 141.197 47.0321C141.569 46.9472 141.973 46.8727 142.408 46.809C142.844 46.7452 143.311 46.6816 143.789 46.6391C144.289 46.5966 144.777 46.5647 145.266 46.5647ZM145.616 59.0042C146.031 59.0042 146.434 58.9935 146.817 58.9723C147.199 58.951 147.507 58.9297 147.73 58.8872V55.6579C147.56 55.6154 147.306 55.5836 146.955 55.5411C146.615 55.4986 146.296 55.4879 146.01 55.4879C145.606 55.4879 145.234 55.5091 144.884 55.5622C144.533 55.6047 144.225 55.7003 143.959 55.8278C143.694 55.9659 143.481 56.1465 143.333 56.3696C143.184 56.5927 143.109 56.8795 143.109 57.2301C143.109 57.8993 143.333 58.3562 143.779 58.6111C144.225 58.8767 144.83 59.0042 145.616 59.0042Z" fill="white"/>
<path d="M152.001 61.9785C152.957 60.4382 153.934 59.0147 154.943 57.7187C155.953 56.4227 157.036 55.1693 158.173 53.9477C156.972 52.7154 155.878 51.5043 154.901 50.3146C153.924 49.1248 153.042 48.0094 152.288 46.9683H157.259C157.748 47.6694 158.343 48.4768 159.044 49.3904C159.734 50.304 160.648 51.4619 161.763 52.8641V46.9683H165.906V52.8854C167.064 51.5044 167.988 50.3358 168.679 49.401C169.359 48.4662 169.954 47.6482 170.453 46.9683H175.361C174.66 48.0519 173.831 49.1673 172.886 50.3146C171.94 51.4618 170.825 52.6623 169.561 53.9158C170.24 54.6381 170.857 55.318 171.398 55.9554C171.94 56.5928 172.45 57.2301 172.939 57.8568C173.427 58.4836 173.884 59.1422 174.32 59.8114C174.755 60.4913 175.212 61.203 175.69 61.9679H170.963C169.529 59.8114 167.861 57.5382 165.938 55.1587V61.9679H161.795V55.2011C160.828 56.4865 159.904 57.6975 159.023 58.8342C158.141 59.9708 157.397 61.0118 156.771 61.9572H152.001V61.9785Z" fill="white"/>
<path d="M174.893 54.585C174.893 53.2571 175.095 52.0886 175.509 51.09C175.924 50.0915 176.455 49.2629 177.124 48.5937C177.793 47.9244 178.558 47.4251 179.419 47.0852C180.29 46.7452 181.171 46.5753 182.085 46.5753C184.22 46.5753 185.899 47.2233 187.141 48.5299C188.374 49.8365 189 51.7486 189 54.2769C189 54.5212 188.99 54.7974 188.969 55.0949C188.947 55.3923 188.926 55.6473 188.915 55.881H179.27C179.366 56.752 179.769 57.4531 180.502 57.963C181.224 58.4729 182.191 58.7386 183.413 58.7386C184.188 58.7386 184.964 58.6642 185.707 58.5261C186.462 58.388 187.067 58.2074 187.545 57.9949L188.119 61.4474C187.896 61.5642 187.588 61.6705 187.205 61.7874C186.823 61.9042 186.398 61.9997 185.93 62.0847C185.463 62.1697 184.964 62.2441 184.433 62.2972C183.901 62.3504 183.37 62.3822 182.839 62.3822C181.49 62.3822 180.311 62.1804 179.312 61.7874C178.314 61.3837 177.485 60.8419 176.827 60.1514C176.168 59.4609 175.69 58.6322 175.371 57.6868C175.053 56.7201 174.893 55.6898 174.893 54.585ZM184.879 52.9597C184.857 52.5985 184.794 52.2479 184.698 51.908C184.592 51.5681 184.433 51.26 184.209 50.9945C183.986 50.7289 183.71 50.5058 183.381 50.3358C183.052 50.1659 182.637 50.0809 182.138 50.0809C181.66 50.0809 181.256 50.1659 180.906 50.3252C180.566 50.4846 180.279 50.697 180.045 50.9626C179.822 51.2281 179.642 51.5362 179.514 51.8867C179.387 52.2373 179.302 52.5985 179.238 52.9597H184.879Z" fill="white"/>
<path d="M204.287 54.4682C204.287 55.6261 204.149 56.6883 203.862 57.6338C203.575 58.5898 203.161 59.4077 202.608 60.0876C202.056 60.7675 201.376 61.3092 200.558 61.681C199.74 62.0635 198.795 62.2547 197.733 62.2547C197.138 62.2547 196.585 62.2016 196.075 62.0847C195.565 61.9679 195.066 61.8086 194.588 61.5961V67.2474H190.339V47.4676C190.721 47.3507 191.157 47.2446 191.656 47.1383C192.155 47.0321 192.665 46.9471 193.207 46.8621C193.749 46.7878 194.301 46.724 194.864 46.6815C195.427 46.639 195.958 46.6072 196.479 46.6072C197.711 46.6072 198.816 46.7878 199.793 47.1596C200.76 47.5314 201.578 48.0519 202.247 48.7318C202.916 49.4116 203.426 50.2295 203.777 51.1962C204.106 52.1842 204.287 53.2784 204.287 54.4682ZM199.942 54.585C199.942 53.2678 199.645 52.2267 199.06 51.43C198.465 50.6439 197.594 50.2508 196.436 50.2508C196.054 50.2508 195.703 50.2614 195.385 50.2933C195.066 50.3252 194.801 50.357 194.588 50.3889V58.0694C194.854 58.2393 195.204 58.3879 195.629 58.4942C196.054 58.611 196.49 58.6642 196.925 58.6642C198.933 58.6642 199.942 57.3045 199.942 54.585Z" fill="white"/>
<path d="M209.874 52.3011C210.14 52.2267 210.491 52.1629 210.915 52.1204C211.34 52.0779 211.829 52.0461 212.381 52.0461C213.253 52.0461 214.081 52.1524 214.846 52.3542C215.611 52.5667 216.291 52.8853 216.854 53.3102C217.427 53.7351 217.873 54.2769 218.213 54.9355C218.543 55.5941 218.713 56.359 218.713 57.2301C218.713 58.1012 218.564 58.866 218.256 59.5034C217.948 60.1408 217.512 60.6613 216.939 61.0756C216.365 61.4899 215.685 61.7873 214.899 61.9891C214.113 62.191 213.231 62.2866 212.265 62.2866C211.011 62.2866 209.853 62.2228 208.812 62.106C207.771 61.9785 206.698 61.7874 205.615 61.5218V46.9683H209.864V52.3011H209.874ZM211.988 59.0042C212.764 59.0042 213.38 58.8554 213.826 58.558C214.272 58.2605 214.495 57.7825 214.495 57.1133C214.495 56.7733 214.421 56.4864 214.272 56.2421C214.124 56.0084 213.911 55.8173 213.646 55.6686C213.38 55.5305 213.072 55.4242 212.721 55.3711C212.371 55.318 211.999 55.2862 211.595 55.2862C211.309 55.2862 211 55.3073 210.65 55.3392C210.31 55.3817 210.055 55.4135 209.874 55.456V58.8767C210.108 58.9192 210.406 58.9404 210.788 58.9616C211.17 59.0041 211.563 59.0042 211.988 59.0042ZM225.14 61.9785H220.89V46.9683H225.14V61.9785Z" fill="white"/>
<path d="M249.285 54.1068C249.285 55.2647 249.147 56.3271 248.86 57.2725C248.574 58.2286 248.159 59.0465 247.607 59.7264C247.055 60.4062 246.375 60.948 245.557 61.3198C244.739 61.7022 243.793 61.8935 242.731 61.8935C242.136 61.8935 241.584 61.8403 241.074 61.7235C240.564 61.6066 240.065 61.4473 239.587 61.2349V66.8862H235.337V47.1063C235.72 46.9895 236.155 46.8833 236.655 46.7771C237.154 46.6709 237.664 46.5859 238.206 46.5115C238.747 46.4372 239.3 46.3734 239.863 46.3309C240.426 46.2884 240.957 46.2566 241.477 46.2566C242.71 46.2566 243.815 46.4371 244.792 46.8089C245.759 47.1807 246.577 47.7013 247.246 48.3812C247.915 49.061 248.425 49.8789 248.775 50.8456C249.105 51.8229 249.285 52.9064 249.285 54.1068ZM244.951 54.2131C244.951 52.8959 244.654 51.8548 244.07 51.058C243.485 50.2719 242.603 49.8683 241.446 49.8683C241.063 49.8683 240.713 49.8789 240.394 49.9108C240.075 49.9427 239.81 49.9745 239.597 50.0064V57.6867C239.863 57.8567 240.213 58.0054 240.638 58.1117C241.063 58.2285 241.499 58.2817 241.934 58.2817C243.942 58.2923 244.951 56.9326 244.951 54.2131Z" fill="url(#paint0_linear_91_421)"/>
<path d="M232.714 59.3544C232.714 60.7991 231.545 61.9676 230.1 61.9676C228.656 61.9676 227.487 60.7991 227.487 59.3544C227.487 57.9097 228.656 56.7412 230.1 56.7412C231.545 56.7412 232.714 57.9097 232.714 59.3544Z" fill="#76C591"/>
<path d="M267.62 48.8272C266.887 48.2217 266.038 47.7437 265.071 47.4038C264.104 47.0638 263.084 46.8408 262.022 46.7451V42.7935H257.879V46.7451C256.509 46.8939 255.319 47.1913 254.31 47.6162C253.301 48.0411 252.472 48.5829 251.824 49.2415C251.176 49.9001 250.698 50.6437 250.379 51.4829C250.061 52.3221 249.912 53.2145 249.912 54.1705C249.912 55.1585 250.082 56.0933 250.411 56.9644C250.741 57.8355 251.24 58.6109 251.909 59.2801C252.578 59.9493 253.407 60.4911 254.406 60.9054C255.404 61.3197 256.562 61.5853 257.869 61.6809V66.9074H262.012V61.6809C263.095 61.5853 264.125 61.3728 265.092 61.0435C266.059 60.7142 266.909 60.2362 267.631 59.6307C268.353 59.0252 268.927 58.271 269.363 57.3787C269.788 56.4864 270 55.4241 270 54.2131C270 53.0127 269.788 51.9716 269.363 51.0899C268.927 50.1763 268.353 49.4327 267.62 48.8272ZM257.879 58.0692C256.679 57.9311 255.765 57.5699 255.138 56.9856C254.512 56.4014 254.193 55.4772 254.193 54.2131C254.193 52.9065 254.522 51.9397 255.181 51.3342C255.84 50.7287 256.732 50.3781 257.879 50.2825V58.0692ZM265.368 56.0402C265.145 56.5395 264.869 56.9325 264.508 57.2193C264.157 57.5168 263.764 57.7292 263.329 57.8567C262.893 57.9948 262.458 58.0586 262.012 58.0586V50.2719C262.447 50.2931 262.883 50.3676 263.329 50.4951C263.764 50.6332 264.157 50.8456 264.508 51.1324C264.859 51.4299 265.145 51.8229 265.368 52.3222C265.591 52.8215 265.698 53.4376 265.698 54.1812C265.698 54.9248 265.581 55.5515 265.368 56.0402Z" fill="url(#paint1_linear_91_421)"/>
<path d="M81.1569 81.5672V75.3953H83.2389C83.7276 75.3953 84.1206 75.4802 84.4287 75.6608C84.7367 75.8308 84.9705 76.0645 85.1192 76.362C85.2679 76.6594 85.3422 76.9887 85.3422 77.3498C85.3422 77.711 85.2679 78.0404 85.1192 78.3378C84.9705 78.6353 84.7474 78.869 84.4393 79.0496C84.1312 79.2302 83.7382 79.3152 83.2602 79.3152H81.7623V78.6566H83.2283C83.5576 78.6566 83.8232 78.6034 84.025 78.4866C84.2268 78.3697 84.3756 78.2209 84.4606 78.0191C84.5456 77.8173 84.5987 77.6048 84.5987 77.3498C84.5987 77.1055 84.5562 76.8824 84.4606 76.6806C84.365 76.4788 84.2268 76.3301 84.0144 76.2239C83.8125 76.1177 83.5469 76.0539 83.207 76.0539H81.8898V81.5672H81.1569Z" fill="white"/>
<path d="M87.8173 81.6734C87.5199 81.6734 87.2543 81.6203 87.0206 81.5034C86.7869 81.3972 86.5958 81.2273 86.447 81.0148C86.3089 80.8024 86.2345 80.5474 86.2345 80.25C86.2345 79.9844 86.2877 79.7719 86.3939 79.6019C86.5001 79.4319 86.6382 79.3045 86.8082 79.2089C86.9782 79.1132 87.18 79.0389 87.3925 78.9964C87.605 78.954 87.8174 78.9115 88.0299 78.8796C88.3167 78.8477 88.5398 78.8159 88.7204 78.7947C88.901 78.7734 89.0284 78.7415 89.1028 78.699C89.1878 78.6565 89.2196 78.5715 89.2196 78.4547V78.4334C89.2196 78.136 89.1346 77.9022 88.9753 77.7429C88.816 77.5835 88.5716 77.4986 88.2423 77.4986C87.9023 77.4986 87.6368 77.573 87.4455 77.7217C87.2543 77.8705 87.1162 78.0298 87.0419 78.1997L86.362 77.9554C86.4788 77.6792 86.6489 77.4561 86.8507 77.2968C87.0526 77.1375 87.2756 77.0312 87.5093 76.9674C87.7537 76.9037 87.9873 76.8719 88.221 76.8719C88.3697 76.8719 88.5398 76.8932 88.731 76.925C88.9222 76.9569 89.1133 77.0312 89.2939 77.1374C89.4745 77.2437 89.6233 77.4136 89.7508 77.626C89.8676 77.8491 89.9313 78.136 89.9313 78.5078V81.5566H89.2196V80.9298H89.1877C89.1452 81.0254 89.0603 81.1423 88.9434 81.2485C88.8266 81.3653 88.6778 81.461 88.4972 81.546C88.3166 81.6416 88.0829 81.6734 87.8173 81.6734ZM87.9236 81.0361C88.1998 81.0361 88.4441 80.9829 88.6353 80.8661C88.8265 80.7599 88.9753 80.6111 89.0709 80.4411C89.1665 80.2712 89.2196 80.0799 89.2196 79.8887V79.2408C89.1877 79.2726 89.1239 79.3045 89.0177 79.3363C88.9115 79.3682 88.7947 79.3895 88.6672 79.4108C88.5397 79.432 88.4123 79.4532 88.2848 79.4638C88.1573 79.4744 88.0617 79.4957 87.9873 79.5063C87.8067 79.5276 87.6261 79.57 87.4668 79.6232C87.3075 79.6763 87.18 79.7614 87.0844 79.857C86.9888 79.9632 86.9357 80.1012 86.9357 80.2818C86.9357 80.5261 87.0313 80.7173 87.2119 80.8448C87.3925 80.9723 87.6368 81.0361 87.9236 81.0361Z" fill="white"/>
<path d="M90.9511 80.3881H91.7053C91.7266 80.6006 91.8116 80.7599 91.9922 80.8661C92.1621 80.9723 92.3959 81.0255 92.6721 81.0255C92.9589 81.0255 93.2031 80.9617 93.405 80.8448C93.6068 80.728 93.7131 80.5367 93.7131 80.2711C93.7131 80.1118 93.6706 79.9843 93.5962 79.8675C93.5219 79.7506 93.4156 79.6656 93.2775 79.6019C93.1394 79.5382 92.9801 79.5063 92.7889 79.5063H91.9922V78.869H92.7889C93.0757 78.869 93.2775 78.8052 93.4156 78.6777C93.5537 78.5502 93.6175 78.3909 93.6175 78.1997C93.6175 77.9979 93.5431 77.828 93.3943 77.7005C93.2456 77.573 93.0438 77.5092 92.7676 77.5092C92.4914 77.5092 92.2683 77.573 92.0877 77.6898C91.9072 77.8067 91.8115 77.966 91.8009 78.1572H91.0574C91.068 77.9129 91.1423 77.6898 91.291 77.4986C91.4397 77.3074 91.631 77.1587 91.886 77.0419C92.1303 76.9356 92.417 76.8719 92.7464 76.8719C93.0757 76.8719 93.3519 76.925 93.5962 77.0419C93.8406 77.1587 94.0212 77.3074 94.1593 77.4986C94.2974 77.6898 94.3611 77.9129 94.3611 78.1572C94.3611 78.4228 94.2867 78.6247 94.138 78.7947C93.9893 78.9646 93.8087 79.0708 93.5856 79.1345V79.1771C93.7662 79.1877 93.915 79.2407 94.0425 79.347C94.1699 79.4532 94.2761 79.5807 94.3504 79.74C94.4248 79.8993 94.4566 80.0799 94.4566 80.2711C94.4566 80.5473 94.3823 80.8024 94.2336 81.0042C94.0849 81.2166 93.8725 81.3759 93.6175 81.4822C93.3519 81.599 93.0545 81.6522 92.7146 81.6522C92.3853 81.6522 92.0984 81.599 91.8328 81.4928C91.5779 81.3866 91.3654 81.2379 91.2167 81.0467C91.0361 80.8661 90.9618 80.6431 90.9511 80.3881Z" fill="white"/>
<path d="M95.434 81.5672V76.9357H97.3249C97.8242 76.9357 98.2172 77.0525 98.5147 77.2755C98.8121 77.4986 98.9502 77.796 98.9502 78.1678C98.9502 78.444 98.8651 78.6671 98.6952 78.8158C98.5252 78.9645 98.3128 79.0708 98.0578 79.1239C98.2278 79.1452 98.3978 79.2089 98.5572 79.3046C98.7165 79.4002 98.8545 79.5382 98.9607 79.6976C99.067 79.8676 99.1201 80.0693 99.1201 80.3137C99.1201 80.5474 99.0564 80.7598 98.9396 80.951C98.8227 81.1422 98.6422 81.2804 98.4191 81.3972C98.196 81.5141 97.9304 81.5566 97.6117 81.5566H95.434V81.5672ZM96.1139 78.8796H97.3355C97.5267 78.8796 97.686 78.8478 97.8241 78.7947C97.9622 78.7416 98.0685 78.6671 98.1429 78.5609C98.2172 78.4546 98.2491 78.3378 98.2491 78.2104C98.2491 78.0191 98.1641 77.8597 98.0048 77.7535C97.8454 77.6473 97.6223 77.5836 97.3355 77.5836H96.1139V78.8796ZM96.1139 80.9193H97.6224C97.8667 80.9193 98.0578 80.8661 98.1959 80.7492C98.334 80.6324 98.4085 80.473 98.4085 80.2711C98.4085 80.0268 98.334 79.8463 98.1959 79.7082C98.0578 79.5701 97.8667 79.5063 97.6224 79.5063H96.1139V80.9193Z" fill="white"/>
<path d="M100.915 80.5156L103.146 76.9357H103.964V81.5672H103.252V77.9873L101.032 81.5672H100.204V76.9357H100.915V80.5156Z" fill="white"/>
<path d="M105.26 81.5672V76.9357H107.151C107.65 76.9357 108.043 77.0525 108.341 77.2755C108.638 77.4986 108.776 77.796 108.776 78.1678C108.776 78.444 108.691 78.6671 108.521 78.8158C108.351 78.9645 108.139 79.0708 107.884 79.1239C108.054 79.1452 108.224 79.2089 108.383 79.3046C108.543 79.4002 108.681 79.5382 108.787 79.6976C108.893 79.8676 108.946 80.0693 108.946 80.3137C108.946 80.5474 108.883 80.7598 108.766 80.951C108.649 81.1422 108.468 81.2804 108.245 81.3972C108.022 81.5141 107.757 81.5566 107.438 81.5566H105.26V81.5672ZM105.94 78.8796H107.162C107.353 78.8796 107.512 78.8478 107.65 78.7947C107.788 78.7416 107.895 78.6671 107.969 78.5609C108.043 78.4546 108.075 78.3378 108.075 78.2104C108.075 78.0191 107.99 77.8597 107.831 77.7535C107.672 77.6473 107.449 77.5836 107.162 77.5836H105.94V78.8796ZM105.94 80.9193H107.449C107.693 80.9193 107.884 80.8661 108.022 80.7492C108.16 80.6324 108.235 80.473 108.235 80.2711C108.235 80.0268 108.16 79.8463 108.022 79.7082C107.884 79.5701 107.693 79.5063 107.449 79.5063H105.94V80.9193Z" fill="white"/>
<path d="M111.39 81.6734C111.092 81.6734 110.827 81.6203 110.593 81.5034C110.359 81.3972 110.168 81.2273 110.019 81.0148C109.881 80.8024 109.807 80.5474 109.807 80.25C109.807 79.9844 109.86 79.7719 109.966 79.6019C110.072 79.4319 110.21 79.3045 110.38 79.2089C110.55 79.1132 110.752 79.0389 110.965 78.9964C111.177 78.954 111.39 78.9115 111.602 78.8796C111.889 78.8477 112.112 78.8159 112.293 78.7947C112.473 78.7734 112.601 78.7415 112.675 78.699C112.76 78.6565 112.792 78.5715 112.792 78.4547V78.4334C112.792 78.136 112.707 77.9022 112.547 77.7429C112.388 77.5835 112.144 77.4986 111.815 77.4986C111.475 77.4986 111.209 77.573 111.018 77.7217C110.827 77.8705 110.689 78.0298 110.614 78.1997L109.934 77.9554C110.051 77.6792 110.221 77.4561 110.423 77.2968C110.625 77.1375 110.848 77.0312 111.082 76.9674C111.326 76.9037 111.56 76.8719 111.793 76.8719C111.942 76.8719 112.112 76.8932 112.303 76.925C112.494 76.9569 112.686 77.0312 112.866 77.1374C113.047 77.2437 113.195 77.4136 113.323 77.626C113.44 77.8491 113.504 78.136 113.504 78.5078V81.5566H112.792V80.9298H112.76C112.718 81.0254 112.632 81.1423 112.516 81.2485C112.399 81.3653 112.25 81.461 112.069 81.546C111.889 81.6416 111.655 81.6734 111.39 81.6734ZM111.496 81.0361C111.772 81.0361 112.016 80.9829 112.208 80.8661C112.399 80.7599 112.547 80.6111 112.643 80.4411C112.739 80.2712 112.792 80.0799 112.792 79.8887V79.2408C112.76 79.2726 112.696 79.3045 112.59 79.3363C112.484 79.3682 112.367 79.3895 112.239 79.4108C112.112 79.432 111.984 79.4532 111.857 79.4638C111.729 79.4744 111.634 79.4957 111.56 79.5063C111.379 79.5276 111.198 79.57 111.039 79.6232C110.88 79.6763 110.752 79.7614 110.657 79.857C110.561 79.9632 110.508 80.1012 110.508 80.2818C110.508 80.5261 110.603 80.7173 110.784 80.8448C110.965 80.9723 111.22 81.0361 111.496 81.0361Z" fill="white"/>
<path d="M115.193 76.9357V81.5672H114.481V76.9357H115.193ZM117.03 78.9645V79.6338H114.587V78.9645H117.03ZM118.454 81.6628C118.04 81.6628 117.668 81.5672 117.36 81.3653C117.052 81.1635 116.797 80.8873 116.627 80.5261C116.446 80.1649 116.361 79.7507 116.361 79.2727C116.361 78.7946 116.446 78.3696 116.627 78.0085C116.807 77.6473 117.052 77.3712 117.36 77.1693C117.668 76.9675 118.04 76.8719 118.454 76.8719C118.868 76.8719 119.24 76.9675 119.548 77.1693C119.867 77.3712 120.111 77.6473 120.281 78.0085C120.462 78.3696 120.547 78.784 120.547 79.2727C120.547 79.7507 120.462 80.1649 120.281 80.5261C120.1 80.8873 119.856 81.1635 119.548 81.3653C119.24 81.5672 118.879 81.6628 118.454 81.6628ZM118.454 81.0255C118.773 81.0255 119.027 80.9405 119.24 80.7811C119.442 80.6218 119.601 80.3986 119.697 80.1437C119.792 79.8781 119.845 79.5913 119.845 79.2833C119.845 78.9752 119.792 78.6883 119.697 78.4228C119.601 78.1572 119.442 77.9341 119.24 77.7748C119.038 77.6048 118.773 77.5305 118.454 77.5305C118.135 77.5305 117.88 77.6154 117.668 77.7748C117.466 77.9341 117.307 78.1572 117.211 78.4228C117.115 78.6883 117.062 78.9752 117.062 79.2833C117.062 79.5913 117.115 79.8781 117.211 80.1437C117.307 80.4092 117.466 80.6218 117.668 80.7811C117.88 80.9405 118.135 81.0255 118.454 81.0255Z" fill="white"/>
<path d="M121.715 76.9357H122.427V80.9086H124.18V76.9357H124.891V80.9086H126.644V76.9357H127.356V81.5672H121.726V76.9357H121.715ZM128.036 80.9086L127.951 82.8951H127.218V81.5672H126.612V80.9086H128.036Z" fill="white"/>
<path d="M129.778 80.5156L132.009 76.9357H132.827V81.5672H132.115V77.9873L129.895 81.5672H129.066V76.9357H129.778V80.5156Z" fill="white"/>
<path d="M136.077 81.6628C135.631 81.6628 135.249 81.5672 134.93 81.3653C134.611 81.1635 134.356 80.8873 134.186 80.5367C134.016 80.1755 133.921 79.7613 133.921 79.2939C133.921 78.8265 134.006 78.4015 134.186 78.0404C134.356 77.6792 134.601 77.3924 134.919 77.1906C135.227 76.9888 135.599 76.8825 136.013 76.8825C136.258 76.8825 136.492 76.925 136.725 76.9993C136.959 77.0843 137.171 77.2118 137.363 77.3924C137.554 77.573 137.713 77.8067 137.819 78.1042C137.936 78.4016 137.989 78.7627 137.989 79.1982V79.4957H134.42V78.8796H137.267C137.267 78.614 137.214 78.3803 137.108 78.1785C137.001 77.9766 136.853 77.8067 136.672 77.6898C136.481 77.573 136.258 77.5092 136.003 77.5092C135.716 77.5092 135.472 77.5836 135.27 77.7217C135.068 77.8598 134.909 78.0404 134.792 78.2635C134.686 78.4866 134.622 78.7202 134.622 78.9752V79.3895C134.622 79.74 134.686 80.0374 134.803 80.2711C134.919 80.5155 135.089 80.6961 135.312 80.8236C135.535 80.951 135.78 81.0148 136.067 81.0148C136.258 81.0148 136.428 80.9829 136.576 80.9298C136.725 80.8766 136.863 80.7917 136.97 80.6855C137.076 80.5792 137.161 80.4411 137.224 80.2818L137.915 80.473C137.841 80.7067 137.724 80.9085 137.554 81.0891C137.384 81.2697 137.171 81.3972 136.916 81.5034C136.662 81.6097 136.385 81.6628 136.077 81.6628Z" fill="white"/>
<path d="M142.175 80.5156L144.406 76.9357H145.224V81.5672H144.512V77.9873L142.292 81.5672H141.463V76.9357H142.175V80.5156Z" fill="white"/>
<path d="M149.388 76.9357V77.6048H147.242V81.5672H146.53V76.9357H149.388Z" fill="white"/>
<path d="M150.429 83.3094V76.9462H151.119V77.6792H151.204C151.257 77.5942 151.332 77.4986 151.427 77.3711C151.523 77.2436 151.65 77.1375 151.831 77.0312C152.012 76.9356 152.245 76.8825 152.543 76.8825C152.936 76.8825 153.276 76.9781 153.573 77.18C153.871 77.3712 154.104 77.6473 154.274 78.0085C154.444 78.3696 154.529 78.784 154.529 79.2727C154.529 79.7613 154.444 80.1862 154.274 80.5473C154.104 80.9085 153.871 81.1848 153.584 81.376C153.286 81.5672 152.946 81.6734 152.564 81.6734C152.267 81.6734 152.033 81.6203 151.852 81.5247C151.672 81.4291 151.534 81.3123 151.438 81.1848C151.342 81.0574 151.268 80.9511 151.215 80.8661H151.151V83.3094H150.429ZM151.119 79.2514C151.119 79.6019 151.172 79.91 151.268 80.1756C151.364 80.4411 151.523 80.6536 151.714 80.8023C151.916 80.951 152.15 81.0255 152.437 81.0255C152.734 81.0255 152.978 80.951 153.18 80.7917C153.382 80.6323 153.531 80.4199 153.637 80.1543C153.733 79.8887 153.786 79.5913 153.786 79.262C153.786 78.9327 153.733 78.6459 153.637 78.3804C153.541 78.1148 153.382 77.9129 153.191 77.7535C152.989 77.5942 152.745 77.5198 152.437 77.5198C152.15 77.5198 151.905 77.5942 151.703 77.7429C151.502 77.8916 151.353 78.0935 151.257 78.3485C151.162 78.6034 151.119 78.9115 151.119 79.2514Z" fill="white"/>
<path d="M155.889 83.2881C155.772 83.2881 155.666 83.2775 155.57 83.2562C155.475 83.235 155.411 83.2137 155.379 83.2031L155.56 82.5764C155.815 82.6401 156.038 82.6401 156.208 82.5764C156.378 82.502 156.526 82.3002 156.654 81.9496L156.792 81.5884L155.082 76.9357H155.857L157.132 80.6218H157.185L158.46 76.9357L159.235 76.9462L157.259 82.2365C157.174 82.4702 157.057 82.6719 156.93 82.8207C156.803 82.9694 156.643 83.0969 156.473 83.1713C156.293 83.2563 156.101 83.2881 155.889 83.2881Z" fill="white"/>
<path d="M160.159 76.9357H160.871V80.9086H162.624V76.9357H163.336V80.9086H165.088V76.9357H165.8V81.5672H160.17V76.9357H160.159Z" fill="white"/>
<path d="M167.096 81.5672V76.9357H167.808V78.9539H168.275L169.943 76.9357H170.857L168.987 79.1664L170.878 81.5672H169.964L168.445 79.6125H167.808V81.5672H167.096Z" fill="white"/>
<path d="M172.365 80.5156L174.596 76.9357H175.414V81.5672H174.702V77.9873L172.482 81.5672H171.653V76.9357H172.365V80.5156Z" fill="white"/>
<path d="M178.611 80.9086H178.994C179.089 80.813 179.174 80.7067 179.238 80.5899C179.302 80.473 179.366 80.3349 179.419 80.1862C179.472 80.0269 179.514 79.8356 179.546 79.6125C179.578 79.3894 179.61 79.1133 179.642 78.784L179.801 76.9462H182.744V80.9193H183.455V82.9057H182.744V81.5779H179.323V82.9057H178.611V80.9086ZM179.801 80.9086H182.032V77.6048H180.46L180.343 78.7734C180.29 79.2621 180.226 79.6763 180.152 80.0481C180.088 80.3987 179.971 80.6855 179.801 80.9086Z" fill="white"/>
<path d="M183.987 81.5672V80.9086H184.157C184.295 80.9086 184.411 80.8767 184.507 80.8236C184.603 80.7704 184.677 80.6748 184.73 80.5261C184.783 80.3774 184.836 80.1862 184.868 79.9419C184.9 79.6976 184.921 79.3682 184.932 78.9858L185.017 76.9357H188.108V81.5672H187.396V77.6048H185.697L185.622 79.2514C185.601 79.6338 185.569 79.9632 185.516 80.25C185.463 80.5368 185.389 80.7811 185.282 80.9723C185.176 81.1635 185.038 81.3123 184.868 81.4185C184.698 81.5247 184.486 81.5672 184.231 81.5672H183.987Z" fill="white"/>
<path d="M189.096 81.5672L190.413 79.262H191.189L189.872 81.5672H189.096ZM192.187 81.5672V77.5836H190.955C190.679 77.5836 190.456 77.6473 190.297 77.7748C190.137 77.9023 190.063 78.0828 190.063 78.3059C190.063 78.529 190.137 78.699 190.275 78.8264C190.413 78.9539 190.615 79.0177 190.87 79.0177H192.368V79.687H190.87C190.562 79.687 190.286 79.6338 190.063 79.517C189.84 79.4107 189.659 79.2514 189.542 79.039C189.415 78.8371 189.362 78.5927 189.362 78.3059C189.362 78.0191 189.425 77.7748 189.553 77.573C189.68 77.3712 189.861 77.2118 190.105 77.0949C190.35 76.9887 190.637 76.925 190.966 76.925H192.867V81.5566H192.187V81.5672Z" fill="white"/>
<path d="M196.054 80.9086H196.437C196.532 80.813 196.617 80.7067 196.681 80.5899C196.745 80.473 196.808 80.3349 196.861 80.1862C196.915 80.0269 196.957 79.8356 196.989 79.6125C197.021 79.3894 197.053 79.1133 197.085 78.784L197.244 76.9462H200.186V80.9193H200.898V82.9057H200.186V81.5779H196.766V82.9057H196.054V80.9086ZM197.255 80.9086H199.485V77.6048H197.913L197.796 78.7734C197.743 79.2621 197.68 79.6763 197.605 80.0481C197.531 80.3987 197.414 80.6855 197.255 80.9086Z" fill="white"/>
<path d="M203.788 81.6628C203.341 81.6628 202.959 81.5672 202.64 81.3653C202.322 81.1635 202.067 80.8873 201.897 80.5367C201.727 80.1755 201.631 79.7613 201.631 79.2939C201.631 78.8265 201.716 78.4015 201.897 78.0404C202.067 77.6792 202.311 77.3924 202.63 77.1906C202.938 76.9888 203.31 76.8825 203.724 76.8825C203.968 76.8825 204.202 76.925 204.436 76.9993C204.669 77.0843 204.882 77.2118 205.073 77.3924C205.264 77.573 205.424 77.8067 205.53 78.1042C205.647 78.4016 205.7 78.7627 205.7 79.1982V79.4957H202.131V78.8796H204.977C204.977 78.614 204.924 78.3803 204.818 78.1785C204.712 77.9766 204.563 77.8067 204.383 77.6898C204.191 77.573 203.968 77.5092 203.713 77.5092C203.427 77.5092 203.182 77.5836 202.98 77.7217C202.778 77.8598 202.619 78.0404 202.502 78.2635C202.396 78.4866 202.332 78.7202 202.332 78.9752V79.3895C202.332 79.74 202.396 80.0374 202.513 80.2711C202.63 80.5155 202.8 80.6961 203.023 80.8236C203.246 80.951 203.49 81.0148 203.777 81.0148C203.968 81.0148 204.138 80.9829 204.287 80.9298C204.436 80.8766 204.574 80.7917 204.68 80.6855C204.786 80.5792 204.871 80.4411 204.935 80.2818L205.625 80.473C205.551 80.7067 205.434 80.9085 205.264 81.0891C205.094 81.2697 204.882 81.3972 204.627 81.5034C204.372 81.6097 204.106 81.6628 203.788 81.6628Z" fill="white"/>
<path d="M206.358 77.6048V76.9357H210.119V77.6048H208.6V81.5672H207.888V77.6048H206.358Z" fill="white"/>
<path d="M212.86 81.6628C212.413 81.6628 212.031 81.5672 211.712 81.3653C211.394 81.1635 211.139 80.8873 210.969 80.5367C210.799 80.1755 210.703 79.7613 210.703 79.2939C210.703 78.8265 210.788 78.4015 210.969 78.0404C211.139 77.6792 211.383 77.3924 211.702 77.1906C212.01 76.9888 212.382 76.8825 212.796 76.8825C213.04 76.8825 213.274 76.925 213.508 76.9993C213.741 77.0843 213.954 77.2118 214.145 77.3924C214.336 77.573 214.496 77.8067 214.602 78.1042C214.719 78.4016 214.772 78.7627 214.772 79.1982V79.4957H211.202V78.8796H214.049C214.049 78.614 213.996 78.3803 213.89 78.1785C213.784 77.9766 213.635 77.8067 213.454 77.6898C213.263 77.573 213.04 77.5092 212.785 77.5092C212.498 77.5092 212.254 77.5836 212.052 77.7217C211.85 77.8598 211.691 78.0404 211.574 78.2635C211.468 78.4866 211.404 78.7202 211.404 78.9752V79.3895C211.404 79.74 211.468 80.0374 211.585 80.2711C211.702 80.5155 211.872 80.6961 212.095 80.8236C212.318 80.951 212.562 81.0148 212.849 81.0148C213.04 81.0148 213.21 80.9829 213.359 80.9298C213.508 80.8766 213.646 80.7917 213.752 80.6855C213.858 80.5792 213.943 80.4411 214.007 80.2818L214.697 80.473C214.623 80.7067 214.506 80.9085 214.336 81.0891C214.166 81.2697 213.954 81.3972 213.699 81.5034C213.444 81.6097 213.168 81.6628 212.86 81.6628Z" fill="white"/>
<path d="M216.567 80.5156L218.798 76.9357H219.616V81.5672H218.904V77.9873L216.684 81.5672H215.855V76.9357H216.567V80.5156ZM218.33 75.3953H218.989C218.989 75.7246 218.872 75.9901 218.649 76.192C218.426 76.3938 218.118 76.5001 217.736 76.5001C217.353 76.5001 217.056 76.3938 216.833 76.192C216.61 75.9795 216.493 75.714 216.493 75.3953H217.151C217.151 75.5546 217.194 75.6927 217.279 75.8096C217.364 75.9264 217.512 75.9902 217.725 75.9902C217.937 75.9902 218.086 75.9264 218.182 75.8096C218.288 75.6927 218.33 75.5546 218.33 75.3953Z" fill="white"/>
<path d="M224.024 80.5156L226.255 76.9357H227.073V81.5672H226.361V77.9873L224.141 81.5672H223.313V76.9357H224.024V80.5156Z" fill="white"/>
<path d="M230.77 81.5672V76.9357H232.661C233.16 76.9357 233.553 77.0525 233.851 77.2755C234.148 77.4986 234.286 77.796 234.286 78.1678C234.286 78.444 234.201 78.6671 234.031 78.8158C233.861 78.9645 233.649 79.0708 233.394 79.1239C233.564 79.1452 233.734 79.2089 233.893 79.3046C234.052 79.4002 234.19 79.5382 234.297 79.6976C234.403 79.8676 234.456 80.0693 234.456 80.3137C234.456 80.5474 234.392 80.7598 234.275 80.951C234.158 81.1422 233.978 81.2804 233.755 81.3972C233.532 81.5141 233.266 81.5566 232.947 81.5566H230.77V81.5672ZM231.439 78.8796H232.661C232.852 78.8796 233.011 78.8478 233.149 78.7947C233.287 78.7416 233.394 78.6671 233.468 78.5609C233.542 78.4546 233.574 78.3378 233.574 78.2104C233.574 78.0191 233.489 77.8597 233.33 77.7535C233.171 77.6473 232.948 77.5836 232.661 77.5836H231.439V78.8796ZM231.439 80.9193H232.947C233.192 80.9193 233.383 80.8661 233.521 80.7492C233.659 80.6324 233.734 80.473 233.734 80.2711C233.734 80.0268 233.659 79.8463 233.521 79.7082C233.383 79.5701 233.192 79.5063 232.947 79.5063H231.439V80.9193Z" fill="white"/>
<path d="M235.242 80.3881H235.996C236.017 80.6006 236.102 80.7599 236.283 80.8661C236.453 80.9723 236.687 81.0255 236.963 81.0255C237.25 81.0255 237.494 80.9617 237.696 80.8448C237.898 80.728 238.004 80.5367 238.004 80.2711C238.004 80.1118 237.962 79.9843 237.887 79.8675C237.813 79.7506 237.707 79.6656 237.569 79.6019C237.43 79.5382 237.271 79.5063 237.08 79.5063H236.283V78.869H237.08C237.367 78.869 237.569 78.8052 237.707 78.6777C237.845 78.5502 237.908 78.3909 237.908 78.1997C237.908 77.9979 237.834 77.828 237.685 77.7005C237.537 77.573 237.335 77.5092 237.059 77.5092C236.782 77.5092 236.559 77.573 236.379 77.6898C236.198 77.8067 236.103 77.966 236.092 78.1572H235.348C235.359 77.9129 235.433 77.6898 235.582 77.4986C235.731 77.3074 235.922 77.1587 236.177 77.0419C236.421 76.9356 236.708 76.8719 237.037 76.8719C237.367 76.8719 237.643 76.925 237.887 77.0419C238.131 77.1587 238.312 77.3074 238.45 77.4986C238.588 77.6898 238.652 77.9129 238.652 78.1572C238.652 78.4228 238.578 78.6247 238.429 78.7947C238.28 78.9646 238.1 79.0708 237.877 79.1345V79.1771C238.057 79.1877 238.206 79.2407 238.333 79.347C238.461 79.4532 238.567 79.5807 238.641 79.74C238.716 79.8993 238.748 80.0799 238.748 80.2711C238.748 80.5473 238.673 80.8024 238.524 81.0042C238.376 81.2166 238.163 81.3759 237.908 81.4822C237.643 81.599 237.345 81.6522 237.005 81.6522C236.676 81.6522 236.389 81.599 236.124 81.4928C235.869 81.3866 235.656 81.2379 235.508 81.0467C235.327 80.8661 235.242 80.6431 235.242 80.3881Z" fill="white"/>
<path d="M239.725 83.3094V76.9462H240.415V77.6792H240.5C240.554 77.5942 240.628 77.4986 240.723 77.3711C240.819 77.2436 240.947 77.1375 241.127 77.0312C241.308 76.9356 241.541 76.8825 241.839 76.8825C242.232 76.8825 242.572 76.9781 242.869 77.18C243.167 77.3712 243.4 77.6473 243.57 78.0085C243.74 78.3696 243.825 78.784 243.825 79.2727C243.825 79.7613 243.74 80.1862 243.57 80.5473C243.4 80.9085 243.167 81.1848 242.88 81.376C242.583 81.5672 242.243 81.6734 241.86 81.6734C241.563 81.6734 241.329 81.6203 241.148 81.5247C240.968 81.4291 240.83 81.3123 240.734 81.1848C240.639 81.0574 240.564 80.9511 240.511 80.8661H240.447V83.3094H239.725ZM240.426 79.2514C240.426 79.6019 240.479 79.91 240.575 80.1756C240.67 80.4411 240.83 80.6536 241.021 80.8023C241.223 80.951 241.456 81.0255 241.743 81.0255C242.041 81.0255 242.285 80.951 242.487 80.7917C242.689 80.6323 242.837 80.4199 242.944 80.1543C243.039 79.8887 243.092 79.5913 243.092 79.262C243.092 78.9327 243.039 78.6459 242.944 78.3804C242.848 78.1148 242.689 77.9129 242.498 77.7535C242.296 77.5942 242.051 77.5198 241.743 77.5198C241.456 77.5198 241.212 77.5942 241.01 77.7429C240.809 77.8916 240.66 78.0935 240.564 78.3485C240.469 78.6034 240.426 78.9115 240.426 79.2514Z" fill="white"/>
<path d="M246.779 81.6628C246.364 81.6628 245.993 81.5672 245.684 81.3653C245.376 81.1635 245.121 80.8873 244.951 80.5261C244.771 80.1649 244.686 79.7507 244.686 79.2727C244.686 78.7946 244.771 78.3696 244.951 78.0085C245.132 77.6473 245.376 77.3712 245.684 77.1693C245.993 76.9675 246.364 76.8719 246.779 76.8719C247.193 76.8719 247.565 76.9675 247.873 77.1693C248.181 77.3712 248.436 77.6473 248.606 78.0085C248.786 78.3696 248.871 78.784 248.871 79.2727C248.871 79.7507 248.786 80.1649 248.606 80.5261C248.425 80.8873 248.181 81.1635 247.873 81.3653C247.565 81.5672 247.193 81.6628 246.779 81.6628ZM246.779 81.0255C247.097 81.0255 247.352 80.9405 247.565 80.7811C247.766 80.6218 247.915 80.3986 248.021 80.1437C248.117 79.8781 248.17 79.5913 248.17 79.2833C248.17 78.9752 248.117 78.6883 248.021 78.4228C247.926 78.1572 247.766 77.9341 247.565 77.7748C247.363 77.6048 247.097 77.5305 246.779 77.5305C246.46 77.5305 246.205 77.6154 245.992 77.7748C245.791 77.9341 245.642 78.1572 245.536 78.4228C245.44 78.6883 245.387 78.9752 245.387 79.2833C245.387 79.5913 245.44 79.8781 245.536 80.1437C245.631 80.4092 245.791 80.6218 245.992 80.7811C246.194 80.9405 246.46 81.0255 246.779 81.0255Z" fill="white"/>
<path d="M251.846 81.6628C251.41 81.6628 251.038 81.5565 250.72 81.3547C250.412 81.1529 250.167 80.8661 249.997 80.5049C249.827 80.1438 249.742 79.7294 249.742 79.2727C249.742 78.8052 249.827 78.3909 250.008 78.0297C250.178 77.6685 250.422 77.3818 250.741 77.18C251.049 76.9781 251.421 76.8719 251.835 76.8719C252.164 76.8719 252.451 76.9356 252.717 77.0525C252.982 77.1694 253.195 77.3393 253.354 77.5624C253.513 77.7855 253.62 78.0297 253.662 78.3166H252.95C252.897 78.1041 252.781 77.9129 252.589 77.7535C252.398 77.5942 252.154 77.5092 251.835 77.5092C251.559 77.5092 251.315 77.5836 251.102 77.7217C250.89 77.8705 250.73 78.0722 250.613 78.3272C250.497 78.5928 250.443 78.8902 250.443 79.2408C250.443 79.6019 250.497 79.91 250.613 80.1756C250.73 80.4411 250.89 80.6429 251.091 80.7917C251.304 80.9404 251.548 81.0148 251.824 81.0148C252.005 81.0148 252.175 80.983 252.324 80.9193C252.472 80.8555 252.6 80.7599 252.706 80.643C252.812 80.5262 252.887 80.3774 252.929 80.2075H253.641C253.598 80.4837 253.503 80.7279 253.344 80.9404C253.184 81.1635 252.982 81.3334 252.717 81.4609C252.483 81.599 252.186 81.6628 251.846 81.6628Z" fill="white"/>
<path d="M254.289 81.5672V80.9086H254.459C254.597 80.9086 254.714 80.8767 254.809 80.8236C254.905 80.7704 254.979 80.6748 255.033 80.5261C255.086 80.3774 255.139 80.1862 255.171 79.9419C255.202 79.6976 255.224 79.3682 255.234 78.9858L255.319 76.9357H258.411V81.5672H257.699V77.6048H255.999L255.925 79.2514C255.904 79.6338 255.872 79.9632 255.819 80.25C255.765 80.5368 255.691 80.7811 255.585 80.9723C255.479 81.1635 255.341 81.3123 255.171 81.4185C255.001 81.5247 254.788 81.5672 254.533 81.5672H254.289Z" fill="white"/>
<path d="M260.323 78.614H261.651C262.192 78.614 262.607 78.7521 262.893 79.0283C263.18 79.3045 263.329 79.6551 263.329 80.08C263.329 80.3562 263.265 80.6111 263.138 80.8342C263.01 81.0573 262.819 81.2379 262.575 81.376C262.32 81.5141 262.022 81.5779 261.661 81.5779H259.717V76.9462H260.429V80.9193H261.661C261.937 80.9193 262.171 80.8448 262.352 80.6961C262.532 80.5474 262.617 80.3562 262.617 80.1225C262.617 79.8782 262.532 79.6763 262.352 79.5276C262.171 79.3682 261.937 79.2939 261.661 79.2939H260.333V78.614H260.323ZM264.062 81.5672V76.9357H264.774V81.5672H264.062Z" fill="white"/>
<path d="M266.601 76.9357L267.706 78.8264L268.81 76.9357H269.628L268.131 79.2514L269.628 81.5672H268.81L267.706 79.7719L266.601 81.5672H265.783L267.249 79.2514L265.783 76.9357H266.601Z" fill="white"/>
<path d="M53.3138 35.8356C43.4345 35.4319 35.733 27.0716 36.1366 17.1923C36.5403 7.31303 44.9005 -0.388499 54.7798 0.0151711C64.6591 0.418842 72.3607 8.77899 71.957 18.6583C71.5534 28.527 63.1931 36.2393 53.3138 35.8356ZM54.3548 10.2874C50.1481 10.1175 46.5789 13.4 46.4089 17.6066C46.2389 21.8133 49.5214 25.3826 53.7281 25.5526C57.9348 25.7225 61.504 22.4402 61.674 18.2335C61.8546 14.0268 58.5615 10.468 54.3548 10.2874Z" fill="url(#paint2_linear_91_421)"/>
<path d="M7.46578 25.85L1.13444 35.8462C-1.8506 40.5521 1.38937 46.7134 6.95577 46.9471L18.7791 47.4358C24.3455 47.6589 28.0742 41.7843 25.4822 36.8447L19.9901 26.3705C17.3981 21.4309 10.4508 21.144 7.46578 25.85Z" fill="#76C591"/>
<path d="M56.6496 18.0316C56.5859 19.4763 55.375 20.5917 53.9302 20.5279C52.4855 20.4642 51.37 19.2532 51.4338 17.8085C51.4975 16.3638 52.7086 15.2484 54.1426 15.3122C55.5767 15.3759 56.7134 16.5869 56.6496 18.0316Z" fill="#76C591"/>
<path d="M26.8419 87.5374L9.30349 68.5011C5.90416 64.815 6.13785 59.068 9.824 55.6793L28.8602 38.1409C32.5463 34.7416 38.2934 34.9753 41.6821 38.6614L59.2205 57.6976C62.6199 61.3837 62.3862 67.1308 58.7 70.5195L39.6637 88.0579C35.9776 91.4573 30.2306 91.2236 26.8419 87.5374ZM18.9597 63.8057L32.302 78.2848C33.0031 79.0496 34.2035 79.1028 34.9683 78.3911L49.4474 65.0487C50.2122 64.3476 50.2654 63.1472 49.5537 62.3823L36.2113 47.9033C35.5102 47.1384 34.3098 47.0853 33.5449 47.7971L19.0659 61.1394C18.301 61.8405 18.2479 63.0409 18.9597 63.8057Z" fill="url(#paint3_linear_91_421)"/>
<path d="M54.0471 17.9253L34.2566 63.0939" stroke="#76C591" stroke-width="1.4673" stroke-miterlimit="10"/>
<path d="M34.2565 65.5797C35.6293 65.5797 36.7422 64.4669 36.7422 63.094C36.7422 61.7212 35.6293 60.6082 34.2565 60.6082C32.8836 60.6082 31.7706 61.7212 31.7706 63.094C31.7706 64.4669 32.8836 65.5797 34.2565 65.5797Z" fill="#82C2EB"/>
<defs>
<linearGradient id="paint0_linear_91_421" x1="242.309" y1="23.3791" x2="242.309" y2="52.8397" gradientUnits="userSpaceOnUse">
<stop offset="0.00035903" stop-color="#FEEB8A"/>
<stop offset="0.2675" stop-color="#F8C3A8"/>
<stop offset="0.5391" stop-color="#F59BB6"/>
<stop offset="0.6841" stop-color="#F497B5"/>
<stop offset="0.8639" stop-color="#F28BB1"/>
<stop offset="0.9989" stop-color="#EF7FAD"/>
</linearGradient>
<linearGradient id="paint1_linear_91_421" x1="259.957" y1="23.379" x2="259.957" y2="52.8396" gradientUnits="userSpaceOnUse">
<stop offset="0.00035903" stop-color="#FEEB8A"/>
<stop offset="0.2675" stop-color="#F8C3A8"/>
<stop offset="0.5391" stop-color="#F59BB6"/>
<stop offset="0.6841" stop-color="#F497B5"/>
<stop offset="0.8639" stop-color="#F28BB1"/>
<stop offset="0.9989" stop-color="#EF7FAD"/>
</linearGradient>
<linearGradient id="paint2_linear_91_421" x1="36.2312" y1="23.2027" x2="70.6627" y2="13.2078" gradientUnits="userSpaceOnUse">
<stop stop-color="#B1DCF5"/>
<stop offset="0.9985" stop-color="#82C2EB"/>
</linearGradient>
<linearGradient id="paint3_linear_91_421" x1="40.6796" y1="88.8585" x2="23.1155" y2="18.457" gradientUnits="userSpaceOnUse">
<stop offset="0.00035903" stop-color="#FEEB8A"/>
<stop offset="0.2675" stop-color="#F8C3A8"/>
<stop offset="0.5391" stop-color="#F59BB6"/>
<stop offset="0.6841" stop-color="#F497B5"/>
<stop offset="0.8639" stop-color="#F28BB1"/>
<stop offset="0.9989" stop-color="#EF7FAD"/>
</linearGradient>
</defs>
</svg>
