<svg width="20" height="20" viewBox="0 0 20 20" fill="none" xmlns="http://www.w3.org/2000/svg">
<path d="M11.7599 16.4522C0.82386 16.0005 0.8264 0.450409 11.76 0C13.9624 0 16.0323 0.852671 17.5883 2.40097C22.7683 7.5152 19.0398 16.4724 11.7599 16.4522ZM11.7599 1.55945C8.07605 1.55945 5.07903 4.5501 5.07903 8.22612C5.45 17.0766 18.079 17.0666 18.4408 8.2108C18.4408 4.54327 15.4438 1.55945 11.7599 1.55945ZM0.781392 20C0.580693 20 0.380071 19.9233 0.227309 19.7701C-0.0769638 19.4648 -0.0755964 18.9711 0.230396 18.6674L3.74665 15.1781C4.05256 14.8745 4.5473 14.8758 4.85169 15.1812C5.15596 15.4866 5.15459 15.9802 4.8486 16.2839L1.33235 19.7732C1.17994 19.9244 0.980647 20 0.781392 20Z" fill="black"/>
</svg>
