<svg width="20" height="20" viewBox="0 0 20 20" fill="none" xmlns="http://www.w3.org/2000/svg">
<path d="M12.9277 20C4.90762 19.9398 -4.48825 8.26355 2.37753 1.39787C2.62146 1.15012 2.87966 0.91178 3.14494 0.689412C3.70594 0.219175 4.41671 -0.0233446 5.14589 0.00649192C5.878 0.0364456 6.56638 0.338404 7.08419 0.856676C7.08755 0.860035 7.09091 0.863471 7.09423 0.866908L8.41673 2.24005C9.84797 3.63932 9.34076 6.16269 7.47481 6.89287C6.89716 7.12828 6.52866 7.33733 6.4302 7.40806C5.70196 8.14948 5.23837 9.35419 7.96228 12.0806C8.8462 12.9653 10.1554 14.1414 11.3145 14.1414C11.7847 14.1414 12.2164 13.9426 12.633 13.5338C12.6872 13.4544 12.8745 13.1357 13.116 12.5344C13.8393 10.6573 16.3697 10.1354 17.7753 11.5754L19.1337 12.8888C19.1369 12.8919 19.1401 12.8951 19.1433 12.8982C19.659 13.4144 19.9608 14.1003 19.993 14.8296C20.0252 15.5583 19.7854 16.2681 19.3178 16.8282C19.1103 17.0766 18.8888 17.3192 18.6591 17.549C17.0416 19.168 15.0833 20 12.9277 20ZM5.02664 1.56416C4.71763 1.56416 4.40678 1.67074 4.14975 1.88615C3.92247 2.07669 3.70113 2.28098 3.49194 2.49343C-0.168233 6.20792 1.84347 11.2818 5.36004 14.7555C8.84496 18.22 13.8975 20.1142 17.5527 16.4453C17.7496 16.2483 17.9395 16.0404 18.1173 15.8275C18.5685 15.2871 18.5354 14.5051 18.0411 14.0061L16.6836 12.6935C16.6803 12.6903 16.6771 12.6872 16.674 12.684C16.3628 12.3726 15.9372 12.2444 15.5063 12.3323C15.0741 12.4205 14.7317 12.7063 14.567 13.1164C14.4577 13.3883 14.0767 14.3002 13.7625 14.6147C13.0406 15.3372 12.217 15.7035 11.3145 15.7035C9.59364 15.7035 8.02779 14.3571 6.85585 13.1842C5.07765 11.4796 3.02248 8.57289 5.34308 6.28489C5.67202 5.95563 6.60597 5.55987 6.88438 5.44642C7.2888 5.28162 7.57065 4.94057 7.65761 4.51079C7.74524 4.07769 7.61673 3.65037 7.30498 3.33834C7.30162 3.33498 7.29826 3.33154 7.29494 3.32811L5.97325 1.95578C5.71107 1.69577 5.37001 1.56416 5.02664 1.56416ZM19.2173 9.33778C18.8173 9.33778 18.4763 9.03258 18.4397 8.62678C18.1008 4.86996 15.1259 1.89756 11.366 1.55901C10.936 1.5203 10.6189 1.14063 10.6576 0.711008C10.6963 0.281347 11.0766 -0.0355682 11.5063 0.00321146C15.9026 0.331647 19.668 4.09402 19.9968 8.48654C20.0356 8.91617 19.7184 9.29584 19.2884 9.33454C19.2646 9.33673 19.2408 9.33778 19.2173 9.33778ZM13.1269 9.33661C13.5365 9.20008 13.7577 8.75773 13.6211 8.34849C13.3145 7.4302 12.5951 6.69256 11.6967 6.37526C11.2897 6.23147 10.843 6.44466 10.6992 6.85139C10.5553 7.25809 10.7686 7.70435 11.1757 7.8481C11.623 8.00611 11.9828 8.37798 12.1381 8.84286C12.2473 9.17005 12.5523 9.37695 12.8795 9.37695C12.9615 9.37699 13.0449 9.36399 13.1269 9.33661ZM16.1981 9.32985C16.6255 9.26878 16.9223 8.87309 16.8612 8.44605C16.4696 5.71089 14.2843 3.5274 11.5469 3.13612C10.5152 3.03041 10.3045 4.49466 11.3255 4.68251C13.3797 4.97611 15.0197 6.61469 15.3135 8.6672C15.3693 9.05676 15.7037 9.33774 16.0864 9.33774C16.1232 9.33782 16.1605 9.33521 16.1981 9.32985Z" fill="#F07FAE"/>
</svg>
