<svg width="20" height="20" viewBox="0 0 20 20" fill="none" xmlns="http://www.w3.org/2000/svg">
<path d="M15.3125 20H4.6875C2.10281 20 0 17.8972 0 15.3125V4.6875C0 2.10281 2.10281 0 4.6875 0H15.3125C17.8972 0 20 2.10281 20 4.6875V15.3125C20 17.8972 17.8972 20 15.3125 20ZM4.6875 1.5625C2.96438 1.5625 1.5625 2.96438 1.5625 4.6875V15.3125C1.5625 17.0356 2.96438 18.4375 4.6875 18.4375H15.3125C17.0356 18.4375 18.4375 17.0356 18.4375 15.3125V4.6875C18.4375 2.96438 17.0356 1.5625 15.3125 1.5625H4.6875ZM12.7521 16.2886C12.4238 16.2886 12.0938 16.2101 11.7883 16.0511L10.2402 15.2455C10.0898 15.1672 9.9102 15.1671 9.75973 15.2455L8.21172 16.0511C7.50422 16.4194 6.66508 16.3559 6.02168 15.8855C5.38547 15.4204 5.07352 14.6509 5.20754 13.8771L5.50316 12.1708C5.53074 12.0115 5.47687 11.8485 5.35906 11.7348L4.10668 10.5264C2.87105 9.35418 3.56953 7.23547 5.25363 7.01039L6.98438 6.76141C7.15129 6.73738 7.295 6.63473 7.36875 6.48684L8.14277 4.93434C8.88246 3.41496 11.1178 3.41551 11.8571 4.93434L12.6311 6.4868C12.7049 6.63473 12.8486 6.73738 13.0155 6.76141L14.7463 7.01039C16.431 7.23563 17.1285 9.35469 15.8932 10.5263L14.6409 11.7348C14.523 11.8485 14.4691 12.0115 14.4968 12.1707L14.7924 13.8771C14.9264 14.6509 14.6145 15.4204 13.9782 15.8855C13.6127 16.1527 13.184 16.2886 12.7521 16.2886ZM10 13.6245C10.3303 13.6245 10.6605 13.7028 10.9616 13.8595L12.5096 14.6651C12.7681 14.7996 12.9779 14.6813 13.0562 14.6241C13.1309 14.5695 13.2996 14.4134 13.2529 14.1439L12.9573 12.4375C12.8411 11.7673 13.0649 11.0842 13.5559 10.6104L14.8083 9.40195C15.0078 9.20945 14.9641 8.9866 14.9361 8.89977C14.9072 8.81039 14.8093 8.59801 14.5239 8.55699L12.7931 8.30801C12.1186 8.21102 11.5354 7.79082 11.2329 7.18398L10.4589 5.63156C10.2732 5.25652 9.72738 5.25586 9.54117 5.63156L8.76719 7.18402C8.46469 7.79082 7.88141 8.21102 7.20695 8.30801L5.47621 8.55699C5.19078 8.59805 5.09289 8.81039 5.06398 8.89977C5.03594 8.98664 4.99223 9.20949 5.19176 9.40199L6.44414 10.6104C6.93516 11.0843 7.15898 11.7673 7.04281 12.4375L6.74719 14.1439C6.70051 14.4134 6.86922 14.5695 6.94391 14.6241C7.02211 14.6813 7.23184 14.7996 7.49051 14.6651L9.03848 13.8595C9.33941 13.7028 9.66977 13.6245 10 13.6245Z" fill="#F07FAE"/>
</svg>
