<svg width="20" height="20" viewBox="0 0 20 20" fill="none" xmlns="http://www.w3.org/2000/svg">
<path d="M5.97656 12.5391C5.97656 13.0784 5.53934 13.5156 5 13.5156C3.70461 13.4642 3.70496 11.6138 5 11.5625C5.53934 11.5625 5.97656 11.9997 5.97656 12.5391ZM8.35938 11.5625C7.82004 11.5625 7.38281 11.9997 7.38281 12.5391C7.43426 13.8345 9.28469 13.8341 9.33594 12.5391C9.33594 11.9997 8.89871 11.5625 8.35938 11.5625ZM11.7188 11.5625C11.1794 11.5625 10.7422 11.9997 10.7422 12.5391C10.7936 13.8345 12.6441 13.8341 12.6953 12.5391C12.6953 11.9997 12.2581 11.5625 11.7188 11.5625ZM5 14.9219C4.46066 14.9219 4.02344 15.3591 4.02344 15.8984C4.07488 17.1938 5.92531 17.1935 5.97656 15.8984C5.97656 15.3591 5.53934 14.9219 5 14.9219ZM8.35938 14.9219C7.82004 14.9219 7.38281 15.3591 7.38281 15.8984C7.43426 17.1938 9.28469 17.1935 9.33594 15.8984C9.33594 15.3591 8.89871 14.9219 8.35938 14.9219ZM11.7188 14.9219C11.1794 14.9219 10.7422 15.3591 10.7422 15.8984C10.7936 17.1938 12.6441 17.1935 12.6953 15.8984C12.6953 15.3591 12.2581 14.9219 11.7188 14.9219ZM15.0781 14.9219C14.5388 14.9219 14.1016 15.3591 14.1016 15.8984C14.153 17.1938 16.0034 17.1935 16.0547 15.8984C16.0547 15.3591 15.6175 14.9219 15.0781 14.9219ZM20 8.90625V15.3125C20 17.8972 17.8972 20 15.3125 20H4.6875C2.10281 20 0 17.8972 0 15.3125V8.90625C0 6.32156 2.10281 4.21875 4.6875 4.21875H15.3125C17.8972 4.21875 20 6.32156 20 8.90625ZM18.4375 8.90625C18.4375 7.18313 17.0356 5.78125 15.3125 5.78125H4.6875C2.96438 5.78125 1.5625 7.18313 1.5625 8.90625V15.3125C1.5625 17.0356 2.96438 18.4375 4.6875 18.4375H15.3125C17.0356 18.4375 18.4375 17.0356 18.4375 15.3125V8.90625ZM16.0938 8.51562H3.90625C2.86969 8.55688 2.87047 10.0372 3.90625 10.0781H16.0938C17.1303 10.0369 17.1295 8.55652 16.0938 8.51562ZM7.89062 2.34375C7.89062 2.77523 7.54086 3.125 7.10938 3.125C6.67789 3.125 6.32812 2.77523 6.32812 2.34375C6.32812 1.91297 5.97766 1.5625 5.54688 1.5625C5.11609 1.5625 4.76562 1.91297 4.76562 2.34375C4.76562 2.77523 4.41586 3.125 3.98438 3.125C3.55289 3.125 3.20312 2.77523 3.20312 2.34375C3.33195 -0.765664 7.76238 -0.764531 7.89062 2.34375ZM14.5312 0C13.2389 0 12.1875 1.05141 12.1875 2.34375C12.1875 2.77523 12.5373 3.125 12.9688 3.125C13.4002 3.125 13.75 2.77523 13.75 2.34375C13.75 1.91297 14.1005 1.5625 14.5312 1.5625C14.962 1.5625 15.3125 1.91297 15.3125 2.34375C15.3125 2.77523 15.6623 3.125 16.0938 3.125C16.5252 3.125 16.875 2.77523 16.875 2.34375C16.875 1.05141 15.8236 0 14.5312 0ZM15.0781 11.5625C14.5388 11.5625 14.1016 11.9997 14.1016 12.5391C14.153 13.8345 16.0034 13.8341 16.0547 12.5391C16.0547 11.9997 15.6175 11.5625 15.0781 11.5625Z" fill="#F07FAE"/>
</svg>
