<svg width="20" height="20" viewBox="0 0 20 20" fill="none" xmlns="http://www.w3.org/2000/svg">
<path d="M11.54 20H4.67836C2.09871 20 0 17.8972 0 15.3125V4.68749C0 2.10281 2.09871 0 4.67836 0H15.2827C17.8623 0 19.961 2.10281 19.961 4.68749V8.6328C19.9198 9.66936 18.4424 9.66858 18.4016 8.6328V4.68749C18.4016 2.96437 17.0024 1.5625 15.2827 1.5625H4.67836C2.9586 1.5625 1.55945 2.96437 1.55945 4.68749V15.3125C1.55945 17.0356 2.9586 18.4375 4.67836 18.4375H11.54C12.5745 18.4787 12.5737 19.9591 11.54 20ZM10.5727 6.87866L12.988 4.45866C13.2925 4.15355 13.2925 3.6589 12.988 3.35382C12.6835 3.04871 12.1897 3.04871 11.8853 3.35382L9.47002 5.77382C9.32234 5.92179 9.12565 6.00179 8.91715 6.00265C8.70834 6.00225 8.51232 5.92022 8.36522 5.77171L5.97255 3.35597C5.6692 3.04968 5.17548 3.04781 4.86986 3.35175C4.56421 3.6557 4.5623 4.15034 4.86565 4.45659L7.25832 6.87233C7.69961 7.31788 8.28768 7.56393 8.91419 7.56514H8.91883C9.54355 7.5651 10.1308 7.32143 10.5727 6.87866ZM4.49283 12.9704L6.16764 11.2686C7.06374 10.358 7.06117 8.87897 6.16187 7.97155L4.49088 6.28546C4.18745 5.97932 3.6938 5.97757 3.38819 6.28155C3.08261 6.58557 3.0809 7.08022 3.38429 7.38639L5.05528 9.07248C5.35505 9.37494 5.35591 9.86799 5.05719 10.1715L3.38238 11.8733C3.08004 12.1805 3.08347 12.6752 3.39014 12.9781C3.54203 13.1282 3.73984 13.2031 3.93758 13.2031C4.13899 13.2031 4.34027 13.1254 4.49283 12.9704ZM17.457 19.2082C19.1444 17.062 20 15.4248 20 14.3422C20 12.034 18.1287 10.1562 15.8285 10.1562C13.5283 10.1562 11.6569 12.034 11.6569 14.3422C11.6569 15.4249 12.5125 17.062 14.1999 19.2082C14.5955 19.7114 15.1891 20 15.8285 20C16.4678 20 17.0614 19.7114 17.457 19.2082ZM18.4405 14.3422C18.4405 14.8692 17.8604 16.1702 16.232 18.2413C16.0194 18.5049 15.6379 18.5053 15.4249 18.2413C13.7966 16.1702 13.2164 14.8692 13.2164 14.3422C13.2164 12.8956 14.3881 11.7187 15.8285 11.7187C17.2688 11.7187 18.4405 12.8956 18.4405 14.3422ZM4.71735 16.875C4.03271 16.8791 3.67439 16.0309 4.166 15.5413L15.511 4.17413C15.8156 3.86902 16.3093 3.86902 16.6138 4.17413C16.9182 4.47925 16.9182 4.9739 16.6138 5.27897L5.26873 16.6461C5.11645 16.7987 4.91692 16.875 4.71735 16.875ZM14.8538 14.2578C14.8538 14.7971 15.2902 15.2343 15.8285 15.2343C17.1213 15.1829 17.121 13.3325 15.8285 13.2812C15.2902 13.2812 14.8538 13.7185 14.8538 14.2578Z" fill="#F07FAE"/>
</svg>
