<svg width="48" height="29" viewBox="0 0 48 29" fill="none" xmlns="http://www.w3.org/2000/svg">
<path d="M47.6957 14.164C47.6957 21.936 41.3764 28.328 33.5317 28.328C25.7596 28.328 19.3677 21.936 19.3677 14.164C19.3677 6.39196 25.687 0 33.459 0C41.3764 0 47.6957 6.39196 47.6957 14.164Z" fill="#F9B50B"/>
<path d="M28.7375 14.2369C28.7375 13.22 28.5923 12.2031 28.447 11.2588H19.7307C19.8033 10.7504 19.9486 10.3145 20.0939 9.73346H27.8659C27.7206 9.225 27.5027 8.71655 27.2848 8.2081H20.675C20.8929 7.69965 21.1834 7.26383 21.474 6.68275H26.4858C26.1953 6.1743 25.8321 5.66584 25.3963 5.15739H22.6361C23.0719 4.64894 23.5078 4.21313 24.0888 3.70468C21.6192 1.38033 18.278 0.000244141 14.5735 0.000244141C6.87414 0.218152 0.482178 6.3922 0.482178 14.1642C0.482178 21.9363 6.8015 28.3282 14.6462 28.3282C18.3506 28.3282 21.6192 26.8755 24.1615 24.6238C24.6699 24.188 25.1057 23.6796 25.6142 23.0985H22.7088C22.3456 22.6626 21.9824 22.1542 21.6919 21.6457H26.6311C26.9216 21.2099 27.2122 20.7015 27.4301 20.1204H20.8202C20.6023 19.6846 20.3844 19.1761 20.2391 18.595H28.0112C28.447 17.2876 28.7375 15.8349 28.7375 14.2369Z" fill="#C8191C"/>
<path d="M19.6581 17.7959L19.876 16.4885C19.8034 16.4885 19.6581 16.5611 19.5128 16.5611C19.0044 16.5611 18.9317 16.2705 19.0044 16.1253L19.4402 13.5104H20.2392L20.4571 12.0577H19.7307L19.876 11.186H18.3506C18.3506 11.186 17.479 16.1253 17.479 16.7064C17.479 17.578 17.9875 18.0138 18.7138 18.0138C19.1496 18.0138 19.5128 17.8685 19.6581 17.7959Z" fill="white"/>
<path d="M20.1665 15.399C20.1665 17.5054 21.6192 18.0139 22.7814 18.0139C23.8709 18.0139 24.3794 17.7959 24.3794 17.7959L24.6699 16.3432C24.6699 16.3432 23.8709 16.7064 23.0719 16.7064C21.4013 16.7064 21.6919 15.4716 21.6919 15.4716H24.7426C24.7426 15.4716 24.9605 14.5273 24.9605 14.0915C24.9605 13.1473 24.452 11.9124 22.7814 11.9124C21.3287 11.8398 20.1665 13.5104 20.1665 15.399ZM22.7814 13.2199C23.5804 13.2199 23.4351 14.1642 23.4351 14.2368H21.7645C21.8371 14.1642 21.9824 13.2199 22.7814 13.2199Z" fill="white"/>
<path d="M32.2967 17.7957L32.5873 16.1251C32.5873 16.1251 31.8609 16.4883 31.2798 16.4883C30.2629 16.4883 29.7545 15.6893 29.7545 14.745C29.7545 12.9291 30.6261 11.9848 31.7157 11.9848C32.442 11.9848 33.0957 12.4206 33.0957 12.4206L33.3136 10.8227C33.3136 10.8227 32.442 10.4595 31.5704 10.4595C29.8271 10.4595 28.1565 11.9848 28.1565 14.8176C28.1565 16.7062 29.0281 17.941 30.844 17.941C31.4977 18.0136 32.2967 17.7957 32.2967 17.7957Z" fill="white"/>
<path d="M11.4505 11.8396C10.4336 11.8396 9.63458 12.1301 9.63458 12.1301L9.41667 13.4376C9.41667 13.4376 10.0704 13.147 11.0873 13.147C11.5957 13.147 12.0316 13.2197 12.0316 13.6555C12.0316 13.946 11.9589 14.0187 11.9589 14.0187H11.3052C9.99776 14.0187 8.61768 14.5271 8.61768 16.2704C8.61768 17.6505 9.48931 17.941 10.0704 17.941C11.0873 17.941 11.5957 17.2873 11.6684 17.2873L11.5957 17.8684H12.8306L13.4116 13.7281C13.4116 11.9122 11.9589 11.8396 11.4505 11.8396ZM11.741 15.1809C11.741 15.3988 11.5957 16.6336 10.7241 16.6336C10.2883 16.6336 10.143 16.2704 10.143 16.0525C10.143 15.6893 10.3609 15.1809 11.5231 15.1809C11.6684 15.1809 11.741 15.1809 11.741 15.1809Z" fill="white"/>
<path d="M14.864 17.9414C15.2272 17.9414 17.1157 18.014 17.1157 15.9802C17.1157 14.0917 15.2998 14.4549 15.2998 13.7285C15.2998 13.3653 15.5904 13.2201 16.0988 13.2201C16.3167 13.2201 17.1157 13.2927 17.1157 13.2927L17.3336 11.9126C17.3336 11.9126 16.8252 11.7673 15.8809 11.7673C14.7914 11.7673 13.6292 12.2031 13.6292 13.7285C13.6292 15.4718 15.5177 15.3265 15.5177 15.9802C15.5177 16.416 15.0093 16.4887 14.6461 16.4887C13.9924 16.4887 13.266 16.2708 13.266 16.2708L13.0481 17.6508C13.1934 17.7961 13.6292 17.9414 14.864 17.9414Z" fill="white"/>
<path d="M44.7902 10.6777L44.4996 12.7115C44.4996 12.7115 43.9185 11.9852 43.0469 11.9852C41.6668 11.9852 40.5046 13.6558 40.5046 15.617C40.5046 16.8518 41.0857 18.0866 42.3932 18.0866C43.2648 18.0866 43.8459 17.5055 43.8459 17.5055L43.7733 18.014H45.2986L46.3881 10.823L44.7902 10.6777ZM44.0638 14.6001C44.0638 15.3991 43.7006 16.4886 42.829 16.4886C42.3205 16.4886 42.03 16.0528 42.03 15.2538C42.03 14.019 42.5384 13.2926 43.2648 13.2926C43.7733 13.3653 44.0638 13.7284 44.0638 14.6001Z" fill="white"/>
<path d="M3.24227 17.8687L4.1139 12.4936L4.25917 17.8687H5.27607L7.23724 12.4936L6.43825 17.8687H8.03624L9.27105 10.6777H6.80143L5.27607 15.1085L5.20344 10.6777H3.02436L1.78955 17.8687H3.24227Z" fill="white"/>
<path d="M26.4858 17.8684C26.9216 15.3988 26.9943 13.3649 28.0838 13.7281C28.2291 12.7839 28.447 12.348 28.5923 11.9849H28.3017C27.648 11.9849 27.0669 12.8565 27.0669 12.8565L27.2122 12.0575H25.7595L24.8152 17.8684H26.4858Z" fill="white"/>
<path d="M35.7835 11.8396C34.7666 11.8396 33.9676 12.1301 33.9676 12.1301L33.7497 13.4376C33.7497 13.4376 34.4034 13.147 35.4203 13.147C35.9288 13.147 36.3646 13.2197 36.3646 13.6555C36.3646 13.946 36.2919 14.0187 36.2919 14.0187H35.6382C34.3308 14.0187 32.9507 14.5271 32.9507 16.2704C32.9507 17.6505 33.8223 17.941 34.4034 17.941C35.4203 17.941 35.9288 17.2873 36.0014 17.2873L35.9288 17.8684H37.3088L37.8899 13.7281C37.8899 11.9122 36.2919 11.8396 35.7835 11.8396ZM36.1467 15.1809C36.1467 15.3988 36.0014 16.6336 35.1298 16.6336C34.6939 16.6336 34.5487 16.2704 34.5487 16.0525C34.5487 15.6893 34.7666 15.1809 35.9288 15.1809C36.074 15.1809 36.074 15.1809 36.1467 15.1809Z" fill="white"/>
<path d="M39.0517 17.8684C39.4875 15.3988 39.5602 13.3649 40.6497 13.7281C40.795 12.7839 41.0129 12.348 41.1582 11.9849H40.8676C40.2139 11.9849 39.6328 12.8565 39.6328 12.8565L39.7781 12.0575H38.3254L37.3811 17.8684H39.0517Z" fill="white"/>
</svg>
