<svg width="39" height="12" viewBox="0 0 39 12" fill="none" xmlns="http://www.w3.org/2000/svg">
<path d="M34.8653 0.534668H27.3838C27.8196 3.00429 30.2166 5.32864 32.8315 5.32864H38.7876C38.8603 5.11073 38.8603 4.74755 38.8603 4.52964C38.8603 2.35057 37.0444 0.534668 34.8653 0.534668Z" fill="url(#paint0_linear_91_438)"/>
<path d="M28.0376 5.76465V11.7934H31.6694V8.59744H34.8654C36.6086 8.59744 38.134 7.36264 38.6424 5.76465H28.0376Z" fill="#4FAD50"/>
<path d="M15.2534 0.534668V11.7206H18.4494C18.4494 11.7206 19.2484 11.7206 19.6842 10.9216C21.8633 6.63609 22.517 5.32864 22.517 5.32864H22.9528V11.7206H26.5846V0.534668H23.3886C23.3886 0.534668 22.5896 0.607308 22.1538 1.33367C20.3379 5.0381 19.321 6.92663 19.321 6.92663H18.8852V0.534668H15.2534Z" fill="#4FAD50"/>
<path d="M0 11.7936V0.607666H3.6318C3.6318 0.607666 4.64871 0.607664 5.22979 2.20565C6.68251 6.41854 6.82779 6.99963 6.82779 6.99963C6.82779 6.99963 7.11832 5.98272 8.42577 2.20565C9.00686 0.607664 10.0238 0.607666 10.0238 0.607666H13.6556V11.7936H10.0238V5.76482H9.58795L7.55415 11.7936H5.95615L3.92236 5.76482H3.48654V11.7936H0Z" fill="#4FAD50"/>
<defs>
<linearGradient id="paint0_linear_91_438" x1="27.3709" y1="2.96601" x2="38.8345" y2="2.96601" gradientUnits="userSpaceOnUse">
<stop stop-color="#27B1E6"/>
<stop offset="1" stop-color="#148ACA"/>
</linearGradient>
</defs>
</svg>
