<svg width="50" height="16" viewBox="0 0 50 16" fill="none" xmlns="http://www.w3.org/2000/svg">
<path d="M46.6591 0.755127H43.5357C42.5915 0.755127 41.8651 1.04567 41.4293 1.98994L35.4731 15.5729H39.686C39.686 15.5729 40.4124 13.757 40.5577 13.3211C40.9935 13.3211 45.1337 13.3211 45.7148 13.3211C45.8601 13.8296 46.2233 15.5002 46.2233 15.5002H50.0003L46.6591 0.755127ZM41.7198 10.2704C42.083 9.3988 43.3178 6.13018 43.3178 6.13018C43.3178 6.20282 43.681 5.25855 43.8263 4.7501L44.1168 6.05755C44.1168 6.05755 44.9158 9.61671 45.0611 10.3431H41.7198V10.2704Z" fill="#3362AB"/>
<path d="M35.7635 10.7064C35.7635 13.7571 33.0033 15.7909 28.7178 15.7909C26.9019 15.7909 25.1586 15.4277 24.2144 14.9919L24.7954 11.6506L25.3039 11.8686C26.6113 12.4496 27.483 12.6675 29.081 12.6675C30.2431 12.6675 31.4779 12.2317 31.4779 11.2148C31.4779 10.5611 30.9695 10.1253 29.3715 9.39893C27.8462 8.67257 25.8123 7.5104 25.8123 5.40396C25.8123 2.49852 28.6451 0.537354 32.6401 0.537354C34.1655 0.537354 35.4729 0.827897 36.2719 1.19108L35.6908 4.38706L35.4003 4.09651C34.6739 3.80597 33.7297 3.51543 32.3496 3.51543C30.8242 3.58806 30.0979 4.24178 30.0979 4.82287C30.0979 5.4766 30.9695 5.98505 32.3496 6.63877C34.6739 7.72831 35.7635 8.96312 35.7635 10.7064Z" fill="#3362AB"/>
<path d="M0.317139 0.900895L0.389775 0.610352H6.63646C7.50809 0.610352 8.16182 0.900895 8.37972 1.84516L9.75981 8.38239C8.37972 4.89587 5.18374 2.06307 0.317139 0.900895Z" fill="#F9B50B"/>
<path d="M18.5489 0.755253L12.2296 15.5003H7.94405L4.31226 3.15224C6.92715 4.82286 9.10623 7.43776 9.90522 9.25365L10.341 10.779L14.2634 0.682617H18.5489V0.755253Z" fill="#3362AB"/>
<path d="M20.2195 0.682617H24.2145L21.6722 15.5003H17.6772L20.2195 0.682617Z" fill="#3362AB"/>
</svg>
