<svg width="40" height="40" viewBox="0 0 40 40" fill="none" xmlns="http://www.w3.org/2000/svg">
<circle cx="20" cy="20" r="20" fill="#7294C7"/>
<path d="M29.8065 25.1153C29.8065 25.0322 29.7235 25.0322 29.7235 24.9492C29.3914 24.285 28.6442 23.4548 27.6479 22.5416C27.1498 22.1264 26.9007 21.7943 26.7346 21.6283C26.4856 21.2962 26.4856 21.0471 26.5686 20.715C26.6516 20.466 26.9837 20.0509 27.5649 19.3036C27.897 18.8885 28.063 18.6395 28.3121 18.3904C29.5574 16.7299 30.1386 15.6506 29.9725 15.1525L29.8895 15.0695C29.8065 14.9865 29.7235 14.9034 29.5574 14.9034C29.3914 14.8204 29.1423 14.8204 28.8932 14.9034H25.7384C25.6554 14.9034 25.6553 14.9034 25.4893 14.9034C25.4063 14.9034 25.3233 14.9034 25.3233 14.9034H25.2402H25.1572L25.0742 14.9865C24.9912 15.0695 24.9912 15.0695 24.9912 15.1525C24.6591 16.0658 24.244 16.813 23.8288 17.6432C23.5798 18.0583 23.3307 18.4734 23.0816 18.8055C22.8326 19.1376 22.6665 19.3867 22.5005 19.5527C22.3344 19.7188 22.1684 19.8018 22.0854 19.9678C22.0023 20.0509 21.8363 20.1339 21.8363 20.0509C21.7533 20.0509 21.6702 20.0509 21.6702 19.9678C21.5872 19.8848 21.5042 19.8018 21.4212 19.7188C21.3382 19.6357 21.3382 19.4697 21.2551 19.3036C21.2551 19.1376 21.2551 18.9716 21.2551 18.8885C21.2551 18.8055 21.2551 18.5564 21.2551 18.3904C21.2551 18.1413 21.2551 17.9753 21.2551 17.8923C21.2551 17.6432 21.2551 17.3111 21.2551 16.979C21.2551 16.6469 21.2551 16.3978 21.2551 16.2318C21.2551 16.0658 21.2551 15.8167 21.2551 15.6506C21.2551 15.4016 21.2551 15.2355 21.2551 15.1525C21.2551 15.0695 21.1721 14.9034 21.1721 14.8204C21.0891 14.7374 21.0061 14.6544 20.923 14.5713C20.84 14.4883 20.674 14.4883 20.591 14.4053C20.1758 14.3223 19.6777 14.2393 19.0966 14.2393C17.7682 14.2393 16.8549 14.3223 16.5228 14.4883C16.3568 14.5714 16.1907 14.6544 16.1077 14.8204C15.9417 14.9865 15.9417 15.0695 16.0247 15.0695C16.4398 15.1525 16.7719 15.3185 16.938 15.5676L17.021 15.7337C17.104 15.8167 17.104 15.9827 17.187 16.2318C17.27 16.4809 17.27 16.7299 17.27 17.062C17.27 17.5602 17.27 18.0583 17.27 18.3904C17.27 18.8055 17.187 19.0546 17.187 19.3036C17.187 19.5527 17.104 19.7188 17.021 19.8018C16.938 19.9678 16.9379 20.0509 16.8549 20.0509C16.8549 20.0509 16.8549 20.1339 16.7719 20.1339C16.6889 20.1339 16.6059 20.2169 16.4398 20.2169C16.3568 20.2169 16.1907 20.1339 16.1077 20.0509C15.9417 19.9678 15.7756 19.8018 15.6926 19.6357C15.5266 19.4697 15.3605 19.2206 15.1945 18.8885C15.0284 18.5564 14.7793 18.2244 14.6133 17.7262L14.4473 17.3941C14.3642 17.2281 14.1982 16.896 14.0321 16.4809C13.8661 16.0658 13.7001 15.7337 13.534 15.3186C13.451 15.1525 13.368 15.0695 13.2849 14.9865H13.2019C13.2019 14.9865 13.1189 14.9034 13.0359 14.9034C12.9528 14.9034 12.8698 14.8204 12.7868 14.8204H9.79798C9.46588 14.8204 9.29984 14.9034 9.21682 14.9865L9.13379 15.0695C9.13379 15.0695 9.13379 15.1525 9.13379 15.2355C9.13379 15.3186 9.13379 15.4016 9.21682 15.5676C9.63193 16.5639 10.1301 17.5602 10.6282 18.5564C11.1263 19.4697 11.6245 20.2999 11.9566 20.8811C12.3717 21.4623 12.7038 22.0434 13.1189 22.5416C13.534 23.0397 13.7831 23.3718 13.8661 23.5378C14.0321 23.7039 14.1152 23.7869 14.1982 23.8699L14.4473 24.119C14.6133 24.285 14.8624 24.5341 15.1945 24.7832C15.5266 25.0322 15.9417 25.2813 16.3568 25.5304C16.7719 25.7794 17.27 25.9455 17.7682 26.1115C18.3493 26.2776 18.8475 26.3606 19.3456 26.2776H20.591C20.84 26.2776 21.0061 26.1946 21.1721 26.0285L21.2551 25.9455C21.2551 25.8625 21.3382 25.8625 21.3382 25.7794C21.3382 25.6964 21.3382 25.6134 21.3382 25.4474C21.3382 25.1153 21.3382 24.8662 21.4212 24.6171C21.5042 24.3681 21.5042 24.202 21.5872 24.036C21.6703 23.8699 21.7533 23.7869 21.8363 23.7039C21.9193 23.6208 22.0024 23.5378 22.0024 23.5378H22.0854C22.2514 23.4548 22.5005 23.5378 22.6665 23.7039C22.9156 23.8699 23.1647 24.119 23.3307 24.3681C23.4967 24.6171 23.7458 24.8662 24.0779 25.1983C24.41 25.5304 24.6591 25.7794 24.8251 25.8625L25.0742 26.0285C25.2402 26.1115 25.4063 26.1946 25.6554 26.2776C25.9044 26.3606 26.0705 26.3606 26.2365 26.3606L29.0593 26.2776C29.3084 26.2776 29.5574 26.1946 29.7235 26.1115C29.8895 26.0285 29.9725 25.9455 29.9725 25.7794C29.9725 25.6964 29.9725 25.5304 29.9725 25.4474C29.8065 25.2813 29.8065 25.1983 29.8065 25.1153Z" fill="white"/>
</svg>
