<svg width="40" height="40" viewBox="0 0 40 40" fill="none" xmlns="http://www.w3.org/2000/svg">
<path d="M28.5879 33.75H16.4815C11.3131 33.75 7.10824 29.5444 7.10824 24.3751V14.7658C7.10824 9.96034 4.71352 5.51232 0.702451 2.86718C-0.0178874 2.39218 -0.216757 1.42313 0.258156 0.702663C0.73307 -0.0178798 1.70188 -0.216863 2.42237 0.25829C4.71211 1.76828 6.56974 3.75983 7.8981 6.05279C8.18515 6.37443 10.4999 8.82832 14.2945 8.82832H32.284C37.192 8.73652 41.0336 13.6628 39.7504 18.4011L37.6795 26.6565C36.6318 30.833 32.8932 33.75 28.5879 33.75ZM9.83853 11.0706C10.0982 12.2706 10.2327 13.5081 10.2327 14.7658V24.3751C10.2327 27.8213 13.0359 30.6251 16.4815 30.6251H28.5879C31.4581 30.6251 33.9505 28.6804 34.6489 25.896L36.7198 17.6406C37.4823 14.8252 35.1994 11.8988 32.284 11.9533H14.2944C12.5783 11.9533 11.0845 11.5832 9.83853 11.0706ZM15.7004 38.0469C15.7004 36.9682 14.8261 36.0938 13.7477 36.0938C11.1566 36.197 11.1588 39.8978 13.7477 40C14.8261 40 15.7004 39.1256 15.7004 38.0469ZM31.2445 38.0469C31.2445 36.9682 30.3702 36.0938 29.2917 36.0938C26.7006 36.197 26.7029 39.8978 29.2917 40C30.3702 40 31.2445 39.1256 31.2445 38.0469ZM33.8462 16.6408C33.8462 15.7778 33.1468 15.0783 32.284 15.0783H14.9193C12.8466 15.1608 12.8481 18.1215 14.9193 18.2033H32.284C33.1468 18.2033 33.8462 17.5037 33.8462 16.6408Z" fill="#333333"/>
</svg>
