<svg width="20" height="16" viewBox="0 0 20 16" fill="none" xmlns="http://www.w3.org/2000/svg">
<path d="M15.3125 16H4.6875C2.10281 16 0 13.868 0 11.2475V4.75248C0 2.13196 2.10281 0 4.6875 0H15.3125C17.8972 0 20 2.13196 20 4.75248V11.2475C20 13.868 17.8972 16 15.3125 16ZM4.6875 1.58416C2.96438 1.58416 1.5625 3.00547 1.5625 4.75248V11.2475C1.5625 12.9945 2.96438 14.4158 4.6875 14.4158H15.3125C17.0356 14.4158 18.4375 12.9945 18.4375 11.2475V4.75248C18.4375 3.00547 17.0356 1.58416 15.3125 1.58416H4.6875ZM12.8627 9.40222L16.7243 6.41164C17.0671 6.1461 17.1328 5.64903 16.8709 5.30139C16.6089 4.95374 16.1187 4.88721 15.7758 5.15275L11.9147 8.14297C10.7998 9.00511 9.24285 9.00574 8.12723 8.14515L4.38578 5.19644C4.04512 4.92792 3.55426 4.9903 3.28949 5.33568C3.02469 5.68107 3.08617 6.17869 3.42684 6.44717L7.17117 9.39814C7.17305 9.39964 7.17496 9.40111 7.17688 9.40257C8.01375 10.0497 9.01648 10.3732 10.0195 10.3732C11.0224 10.3732 12.0256 10.0495 12.8627 9.40222Z" fill="#F07FAE"/>
</svg>
