<svg width="31" height="40" viewBox="0 0 31 40" fill="none" xmlns="http://www.w3.org/2000/svg">
<path d="M29.2188 40C28.3558 40 27.6562 39.3005 27.6562 38.4375C27.6562 32.3204 22.6796 27.3438 16.5625 27.3438H14.2188C8.10164 27.3438 3.125 32.3204 3.125 38.4375C3.125 39.3005 2.42547 40 1.5625 40C0.699531 40 0 39.3005 0 38.4375C0 30.5973 6.37852 24.2188 14.2188 24.2188H16.5625C24.4027 24.2188 30.7812 30.5973 30.7812 38.4375C30.7812 39.3005 30.0817 40 29.2188 40ZM25.7812 10.5469C25.7812 4.73133 21.0499 0 15.2344 0C9.41883 0 4.6875 4.73133 4.6875 10.5469C4.6875 16.3624 9.41883 21.0938 15.2344 21.0938C21.0499 21.0938 25.7812 16.3624 25.7812 10.5469ZM22.6562 10.5469C22.6562 14.6393 19.3268 17.9688 15.2344 17.9688C11.142 17.9688 7.8125 14.6393 7.8125 10.5469C7.8125 6.45445 11.142 3.125 15.2344 3.125C19.3268 3.125 22.6562 6.45445 22.6562 10.5469ZM16.0823 39.7971L22.5667 36.1252C22.9389 35.9145 23.2084 35.5605 23.3124 35.1457C23.4164 34.7309 23.3459 34.2916 23.1173 33.9302L20.6954 30.1021C20.2341 29.3729 19.2688 29.1556 18.5396 29.6171C17.8103 30.0784 17.5932 31.0437 18.0545 31.7729L19.5991 34.2145L15.3219 36.6365L11.1523 34.217L12.6606 31.7533C13.1112 31.0173 12.8799 30.0555 12.144 29.6048C11.408 29.1543 10.4461 29.3856 9.99555 30.1216L7.6518 33.9497C7.43203 34.3085 7.36641 34.7409 7.46961 35.1488C7.57281 35.5568 7.83617 35.9059 8.20023 36.117L14.5284 39.7889C14.7708 39.9295 15.0416 39.9999 15.3125 39.9999C15.5779 40 15.8435 39.9324 16.0823 39.7971Z" fill="#333333"/>
</svg>
