<svg width="50" height="40" viewBox="0 0 50 40" fill="none" xmlns="http://www.w3.org/2000/svg">
<path d="M38.2812 40H11.7188C5.25703 40 0 34.6701 0 28.1188V11.8812C0 5.3299 5.25703 0 11.7188 0H38.2812C44.743 0 50 5.3299 50 11.8812V28.1188C50 34.6701 44.743 40 38.2812 40ZM11.7188 3.9604C7.41094 3.9604 3.90625 7.51366 3.90625 11.8812V28.1188C3.90625 32.4863 7.41094 36.0396 11.7188 36.0396H38.2812C42.5891 36.0396 46.0938 32.4863 46.0938 28.1188V11.8812C46.0938 7.51366 42.5891 3.9604 38.2812 3.9604H11.7188ZM32.1568 23.5055L41.8106 16.0291C42.6679 15.3652 42.8319 14.1226 42.1772 13.2535C41.5223 12.3844 40.2967 12.218 39.4395 12.8819L29.7868 20.3574C26.9996 22.5128 23.1071 22.5144 20.3181 20.3629L10.9645 12.9911C10.1128 12.3198 8.88564 12.4757 8.22373 13.3392C7.56172 14.2027 7.71543 15.4467 8.56709 16.1179L17.9279 23.4953C17.9326 23.4991 17.9374 23.5028 17.9422 23.5064C20.0344 25.1243 22.5412 25.9331 25.0486 25.9331C27.5561 25.9331 30.064 25.1238 32.1568 23.5055Z" fill="#F07FAE"/>
</svg>
